<svg xmlns="http://www.w3.org/2000/svg" width="138" height="32" viewBox="0 0 138 32" fill="none"><path d="M29.6673 11.1758C30.07 11.1758 30.2043 11.3218 30.2043 11.7149V20.6107H34.7573C35.1488 20.6107 35.2942 20.7567 35.2942 21.1498V21.936C35.2942 22.3292 35.1488 22.4752 34.7573 22.4752H28.7612C28.3696 22.4752 28.213 22.3292 28.213 21.936V11.7149C28.213 11.3218 28.3696 11.1758 28.7612 11.1758H29.6673Z" fill="#76767F"></path><path d="M39.2656 15.0958C39.2656 12.5012 40.8988 10.9399 43.7403 10.9399C46.5817 10.9399 48.215 12.5012 48.215 15.0958V18.5552C48.215 21.1498 46.5705 22.7111 43.7403 22.7111C40.91 22.7111 39.2656 21.1498 39.2656 18.5552V15.0958ZM46.3356 15.0958C46.3356 13.6356 45.4295 12.8494 43.7962 12.8494C42.1629 12.8494 41.268 13.6469 41.268 15.0958V18.5777C41.268 20.0491 42.1629 20.8241 43.7962 20.8241C45.4295 20.8241 46.3356 20.0154 46.3356 18.5777V15.0958Z" fill="#76767F"></path><path d="M61.5384 16.2864C61.9747 16.2864 62.0753 16.4324 62.0753 16.8255V18.9596C62.0872 19.4623 61.9868 19.9612 61.7817 20.4199C61.5765 20.8786 61.2716 21.2853 60.8895 21.6104C59.9406 22.3691 58.744 22.7455 57.5335 22.6662C54.6361 22.6662 53.0588 21.1049 53.0588 18.5103V15.0284C53.0588 12.4675 54.6921 10.895 57.5335 10.895C59.7709 10.895 61.2251 11.7824 61.8404 13.557C61.8748 13.6237 61.8933 13.6975 61.8943 13.7726C61.8953 13.8477 61.8789 13.922 61.8463 13.9896C61.8137 14.0572 61.7659 14.1162 61.7066 14.162C61.6474 14.2078 61.5782 14.2391 61.5048 14.2534L60.6322 14.5567C60.2519 14.6914 60.0953 14.6128 59.961 14.2197C59.7757 13.7399 59.4364 13.3359 58.9968 13.0714C58.5571 12.807 58.0422 12.6972 57.5335 12.7595C55.8891 12.7595 54.9941 13.557 54.9941 15.0059V18.5777C54.9941 20.0491 55.9002 20.8241 57.5335 20.8241C59.1668 20.8241 60.1736 20.0716 60.1736 18.9708V18.1397H57.7461C57.3433 18.1397 57.1979 17.9824 57.1979 17.5893V16.8255C57.1979 16.4324 57.3433 16.2864 57.7461 16.2864H61.5384Z" fill="#76767F"></path><path d="M66.6955 15.0958C66.6955 12.5012 68.3288 10.9399 71.1702 10.9399C74.0117 10.9399 75.6449 12.5012 75.6449 15.0958V18.5552C75.6449 21.1498 74.0005 22.7111 71.1702 22.7111C68.34 22.7111 66.6955 21.1498 66.6955 18.5552V15.0958ZM73.7544 15.0958C73.7544 13.6356 72.8482 12.8494 71.2262 12.8494C69.6041 12.8494 68.6868 13.6469 68.6868 15.0958V18.5777C68.6868 20.0491 69.5929 20.8241 71.2262 20.8241C72.8594 20.8241 73.7544 20.0154 73.7544 18.5777V15.0958Z" fill="#76767F"></path><path d="M80.9139 11.5015C80.9139 11.2544 80.9922 11.1758 81.2382 11.1758H81.7526C81.9986 11.1758 82.0545 11.2544 82.0545 11.5015V22.1495C82.0545 22.3966 82.0545 22.4752 81.7526 22.4752H81.2382C80.9922 22.4752 80.9139 22.3966 80.9139 22.1495V11.5015Z" fill="#76767F"></path><path d="M92.2461 11.1758C93.1777 11.1758 94.0712 11.5474 94.7299 12.2088C95.3887 12.8702 95.7587 13.7673 95.7587 14.7026C95.7587 15.638 95.3887 16.5351 94.7299 17.1965C94.0712 17.8579 93.1777 18.2295 92.2461 18.2295H88.8901V22.1495C88.8901 22.3966 88.8341 22.4752 88.5992 22.4752H88.0734C87.8385 22.4752 87.749 22.3966 87.749 22.1495V11.5015C87.749 11.2544 87.8385 11.1758 88.0734 11.1758H92.2461ZM92.1454 17.1175C92.4657 17.1175 92.7828 17.0542 93.0787 16.9311C93.3746 16.8081 93.6434 16.6277 93.8698 16.4003C94.0963 16.173 94.2759 15.903 94.3985 15.606C94.5211 15.3089 94.5841 14.9905 94.5841 14.6689C94.5841 14.3474 94.5211 14.029 94.3985 13.7319C94.2759 13.4348 94.0963 13.1649 93.8698 12.9375C93.6434 12.7102 93.3746 12.5298 93.0787 12.4067C92.7828 12.2837 92.4657 12.2204 92.1454 12.2204H88.7894V17.1175H92.1454Z" fill="#76767F"></path><path d="M104.496 10.9511C105.359 10.8554 106.231 11.042 106.98 11.4831C107.73 11.9242 108.318 12.5963 108.657 13.3997C108.747 13.5794 108.657 13.7254 108.478 13.8153L107.986 14.0399C107.784 14.1185 107.706 14.1073 107.583 13.8939C107.33 13.2977 106.894 12.7979 106.339 12.4667C105.784 12.1356 105.138 11.9903 104.496 12.0518C102.605 12.0518 101.576 12.8044 101.576 14.1522C101.565 14.5642 101.703 14.9662 101.964 15.2841C102.225 15.602 102.592 15.8143 102.997 15.882C103.598 16.079 104.222 16.1997 104.854 16.2414C105.618 16.2823 106.372 16.4375 107.091 16.7019C107.642 16.877 108.116 17.2371 108.434 17.7219C108.752 18.2066 108.894 18.7864 108.836 19.3639C108.836 21.4643 107.315 22.7335 104.518 22.7335C103.601 22.8389 102.675 22.6254 101.895 22.1288C101.116 21.6321 100.529 20.8823 100.233 20.0041C100.214 19.9641 100.203 19.9202 100.202 19.8755C100.201 19.8308 100.21 19.7865 100.228 19.7457C100.247 19.705 100.274 19.6687 100.307 19.6396C100.341 19.6105 100.381 19.5892 100.424 19.5773L100.916 19.3976C100.955 19.3817 100.996 19.374 101.038 19.3752C101.08 19.3763 101.121 19.3861 101.159 19.4041C101.197 19.4221 101.231 19.4477 101.258 19.4795C101.286 19.5112 101.306 19.5484 101.319 19.5885C101.569 20.2231 102.014 20.7611 102.589 21.1246C103.164 21.4881 103.84 21.6582 104.518 21.6103C106.632 21.6103 107.673 20.869 107.673 19.3639C107.692 18.9683 107.572 18.5784 107.332 18.2638C107.092 17.9491 106.749 17.73 106.364 17.6454C105.785 17.472 105.188 17.3665 104.585 17.3309L103.377 17.1736C102.999 17.0931 102.625 16.9918 102.258 16.8704C101.896 16.7604 101.558 16.5812 101.263 16.3425C100.966 16.0727 100.732 15.7406 100.577 15.3699C100.423 14.9991 100.351 14.5988 100.368 14.1972C100.446 12.2316 101.911 10.9511 104.496 10.9511Z" fill="#76767F"></path><path d="M114.866 18.6338C114.913 19.4281 115.261 20.1743 115.838 20.7198C116.415 21.2653 117.177 21.5691 117.97 21.5691C118.763 21.5691 119.525 21.2653 120.102 20.7198C120.679 20.1743 121.027 19.4281 121.074 18.6338V11.5015C121.074 11.2544 121.153 11.1758 121.399 11.1758H121.913C122.159 11.1758 122.238 11.2544 122.238 11.5015V18.6226C122.238 21.1723 120.739 22.7111 117.976 22.7111C115.212 22.7111 113.713 21.1723 113.713 18.6226V11.5015C113.713 11.2544 113.792 11.1758 114.027 11.1758H114.552C114.787 11.1758 114.866 11.2544 114.866 11.5015V18.6338Z" fill="#76767F"></path><path d="M137.676 11.1758C137.922 11.1758 138 11.2544 138 11.5015V22.1494C138 22.3965 137.922 22.4752 137.676 22.4752H137.206C136.971 22.4752 136.892 22.3965 136.892 22.1494V15.6686C136.892 14.7256 136.956 13.7837 137.083 12.8493H137.016C136.666 13.7038 136.259 14.5331 135.796 15.3316L133.391 19.5885C133.362 19.6624 133.311 19.7255 133.245 19.7697C133.179 19.8138 133.101 19.8368 133.022 19.8356H132.709C132.628 19.836 132.549 19.8129 132.482 19.769C132.414 19.7251 132.361 19.6624 132.328 19.5885L129.89 15.2867C129.456 14.4996 129.083 13.6811 128.771 12.8381H128.704C128.818 13.781 128.878 14.7299 128.883 15.6798V22.1494C128.883 22.3965 128.804 22.4752 128.558 22.4752H128.122C127.876 22.4752 127.798 22.3965 127.798 22.1494V11.5015C127.798 11.2544 127.876 11.1758 128.122 11.1758H128.525C128.617 11.1672 128.709 11.1874 128.789 11.2336C128.869 11.2799 128.933 11.3499 128.972 11.4341L132.888 18.4204L136.781 11.5015C136.904 11.2656 136.971 11.2319 137.217 11.2319L137.676 11.1758Z" fill="#76767F"></path><path d="M9.76605 19.9817V28.1025C9.76605 28.4138 9.64289 28.7123 9.42365 28.9325C9.20442 29.1526 8.90708 29.2762 8.59703 29.2762C8.28699 29.2762 7.98965 29.1526 7.77041 28.9325C7.55118 28.7123 7.42801 28.4138 7.42801 28.1025V19.993C7.75351 20.2316 8.14378 20.3649 8.54669 20.3749C8.98593 20.3875 9.41623 20.2487 9.76605 19.9817ZM19.7223 17.6343C19.4256 17.6343 19.141 17.7526 18.9312 17.9632C18.7215 18.1739 18.6036 18.4596 18.6036 18.7575V20.1727C18.6036 20.484 18.7268 20.7825 18.946 21.0027C19.1652 21.2228 19.4626 21.3464 19.7726 21.3464C20.0827 21.3464 20.38 21.2228 20.5992 21.0027C20.8185 20.7825 20.9416 20.484 20.9416 20.1727V18.8136C20.9503 18.6526 20.9244 18.4915 20.8656 18.3414C20.8067 18.1913 20.7164 18.0557 20.6007 17.9438C20.485 17.8319 20.3467 17.7464 20.1951 17.6929C20.0435 17.6395 19.8822 17.6195 19.7223 17.6343ZM4.88862 23.0593C4.48608 23.0472 4.09641 22.9142 3.76994 22.6774V30.8206C3.76994 31.1334 3.89369 31.4334 4.11398 31.6546C4.33426 31.8757 4.63303 32 4.94455 32C5.25608 32 5.55485 31.8757 5.77513 31.6546C5.99541 31.4334 6.11916 31.1334 6.11916 30.8206V22.7336C5.75386 22.9707 5.32285 23.0848 4.88862 23.0593ZM16.0754 15.1969C15.9238 15.1893 15.7723 15.2127 15.6301 15.2657C15.4878 15.3188 15.3578 15.4003 15.248 15.5054C15.1381 15.6104 15.0506 15.7368 14.991 15.8769C14.9313 16.017 14.9006 16.1678 14.9008 16.3201V22.5763C14.9008 22.8891 15.0245 23.1891 15.2448 23.4103C15.4651 23.6315 15.7639 23.7557 16.0754 23.7557C16.3869 23.7557 16.6857 23.6315 16.906 23.4103C17.1262 23.1891 17.25 22.8891 17.25 22.5763V16.3987C17.2589 16.2366 17.2327 16.0745 17.1733 15.9236C17.1138 15.7726 17.0224 15.6364 16.9054 15.5243C16.7885 15.4122 16.6487 15.3269 16.4958 15.2743C16.3428 15.2216 16.1803 15.2029 16.0195 15.2194L16.0754 15.1969ZM12.3614 17.6006C11.94 17.5977 11.5298 17.4643 11.1868 17.2187V25.3843C11.1868 25.6971 11.3105 25.9971 11.5308 26.2183C11.7511 26.4395 12.0499 26.5637 12.3614 26.5637C12.6729 26.5637 12.9717 26.4395 13.192 26.2183C13.4122 25.9971 13.536 25.6971 13.536 25.3843V17.2299C13.1811 17.4953 12.7479 17.6337 12.3054 17.623L12.3614 17.6006ZM2.34922 23.8568V1.04458C2.34628 0.76651 2.23419 0.500841 2.0373 0.305261C1.84042 0.109682 1.57463 -1.57345e-05 1.29767 1.6928e-09H1.05156C0.774594 -1.57345e-05 0.508809 0.109682 0.311922 0.305261C0.115036 0.500841 0.00294641 0.76651 0 1.04458V23.8568C0 24.1368 0.110789 24.4054 0.307994 24.6034C0.505199 24.8014 0.772667 24.9126 1.05156 24.9126H1.29767C1.57656 24.9126 1.84402 24.8014 2.04123 24.6034C2.23844 24.4054 2.34922 24.1368 2.34922 23.8568ZM5.01167 22.1945H4.76556C4.48667 22.1945 4.21921 22.0832 4.022 21.8852C3.8248 21.6872 3.71401 21.4187 3.71401 21.1386V3.76273C3.71696 3.48466 3.82904 3.21899 4.02593 3.02341C4.22282 2.82783 4.4886 2.71813 4.76556 2.71815H5.01167C5.28864 2.71813 5.55442 2.82783 5.75131 3.02341C5.9482 3.21899 6.06028 3.48466 6.06323 3.76273V21.1611C6.06323 21.4411 5.95244 21.7097 5.75523 21.9077C5.55803 22.1057 5.29056 22.2169 5.01167 22.2169V22.1945ZM8.71449 19.5212H8.4572C8.18128 19.5212 7.91666 19.4112 7.72155 19.2153C7.52644 19.0194 7.41683 18.7537 7.41683 18.4767V6.45841C7.41535 6.32029 7.44117 6.18325 7.49279 6.05521C7.54441 5.92718 7.62081 5.8107 7.71756 5.71251C7.81432 5.61432 7.9295 5.53637 8.05646 5.48317C8.18342 5.42998 8.31963 5.40259 8.4572 5.4026H8.71449C8.99144 5.40556 9.25604 5.5181 9.45084 5.71578C9.64563 5.91347 9.75488 6.18032 9.75486 6.45841V18.4767C9.75486 18.7537 9.64525 19.0194 9.45014 19.2153C9.25504 19.4112 8.99042 19.5212 8.71449 19.5212ZM12.4173 16.7694H12.1824C11.9054 16.7694 11.6396 16.6597 11.4428 16.4641C11.2459 16.2686 11.1338 16.0029 11.1308 15.7248V9.25518C11.1216 9.11096 11.142 8.96639 11.1908 8.83041C11.2395 8.69443 11.3155 8.56995 11.4141 8.46465C11.5126 8.35936 11.6317 8.2755 11.7639 8.21828C11.896 8.16106 12.0385 8.13168 12.1824 8.13198H12.4285C12.7074 8.13198 12.9749 8.24321 13.1721 8.44121C13.3693 8.63922 13.4801 8.90777 13.4801 9.18778V15.7024C13.4815 15.8419 13.4554 15.9804 13.4032 16.1098C13.3511 16.2392 13.2738 16.357 13.176 16.4562C13.0783 16.5554 12.9618 16.6342 12.8335 16.688C12.7052 16.7417 12.5675 16.7694 12.4285 16.7694H12.4173ZM16.1313 14.3545H15.8852C15.6063 14.3545 15.3389 14.2433 15.1417 14.0453C14.9444 13.8473 14.8337 13.5787 14.8337 13.2987V11.6251C14.8366 11.3471 14.9487 11.0814 15.1456 10.8858C15.3425 10.6902 15.6083 10.5805 15.8852 10.5806H16.1313C16.4083 10.5805 16.6741 10.6902 16.871 10.8858C17.0678 11.0814 17.1799 11.3471 17.1829 11.6251V13.2987C17.1829 13.5768 17.0736 13.8436 16.8789 14.0413C16.6841 14.239 16.4195 14.3516 16.1425 14.3545H16.1313Z" fill="#76767F"></path></svg>