<svg xmlns="http://www.w3.org/2000/svg" width="100" height="48" viewBox="0 0 100 48" fill="none"><path d="M0 28.8176H2.99431V43.6344H0V28.8176Z" fill="#76767F"></path><path d="M4.73101 38.5578C4.72904 37.4935 5.03995 36.4526 5.6244 35.5668C6.20886 34.6809 7.04058 33.9899 8.01431 33.5813C8.98804 33.1726 10.06 33.0647 11.0946 33.2711C12.1291 33.4775 13.0797 33.989 13.8261 34.7408C14.5725 35.4926 15.0811 36.451 15.2876 37.4947C15.4941 38.5383 15.3891 39.6203 14.986 40.6037C14.5829 41.5872 13.8997 42.4278 13.023 43.0193C12.1463 43.6108 11.1155 43.9265 10.0609 43.9265C9.35958 43.9345 8.66373 43.8013 8.01412 43.5345C7.36451 43.2676 6.77421 42.8727 6.27781 42.3726C5.78142 41.8726 5.38891 41.2777 5.1233 40.6226C4.8577 39.9675 4.72433 39.2655 4.73101 38.5578V38.5578ZM12.3765 38.5578C12.3647 38.0984 12.219 37.6526 11.9575 37.2764C11.696 36.9001 11.3303 36.61 10.9063 36.4424C10.4823 36.2748 10.0187 36.237 9.57354 36.3339C9.12838 36.4308 8.7214 36.658 8.40352 36.987C8.08564 37.3161 7.87097 37.7325 7.78637 38.1841C7.70177 38.6357 7.75099 39.1024 7.92788 39.5259C8.10476 39.9494 8.40146 40.3108 8.78085 40.565C9.16025 40.8192 9.60549 40.9549 10.0609 40.9551C10.3725 40.9639 10.6825 40.9074 10.9713 40.7892C11.2602 40.6711 11.5217 40.4938 11.7393 40.2685C11.9568 40.0433 12.1258 39.775 12.2355 39.4805C12.3451 39.1861 12.3932 38.8719 12.3765 38.5578V38.5578Z" fill="#76767F"></path><path d="M27.4279 33.4812V43.1308C27.4279 46.5454 24.7829 47.9858 22.108 47.9858C21.1674 48.0564 20.2256 47.8644 19.3859 47.4309C18.5461 46.9974 17.8408 46.3391 17.347 45.528L19.9222 44.0272C20.1265 44.4429 20.4498 44.7871 20.8502 45.0151C21.2506 45.2432 21.7097 45.3447 22.1679 45.3065C22.4694 45.3572 22.7785 45.3373 23.0712 45.2484C23.364 45.1595 23.6326 45.004 23.8563 44.7938C24.08 44.5835 24.2529 44.3243 24.3617 44.0359C24.4704 43.7476 24.5121 43.4379 24.4835 43.1308V42.194C24.1314 42.6311 23.6823 42.9783 23.1725 43.2076C22.6627 43.4368 22.1065 43.5416 21.5491 43.5135C20.1937 43.5135 18.8939 42.9702 17.9355 42.003C16.9772 41.0359 16.4388 39.7241 16.4388 38.3564C16.4388 36.9886 16.9772 35.6769 17.9355 34.7097C18.8939 33.7425 20.1937 33.1992 21.5491 33.1992C22.1062 33.1735 22.6616 33.2794 23.171 33.5085C23.6804 33.7376 24.1299 34.0835 24.4835 34.5187V33.5115L27.4279 33.4812ZM24.4835 38.3564C24.5034 37.8665 24.3777 37.3818 24.1225 36.9646C23.8672 36.5474 23.4942 36.2168 23.0513 36.0152C22.6084 35.8137 22.1159 35.7504 21.6371 35.8335C21.1583 35.9167 20.7151 36.1425 20.3645 36.4818C20.0138 36.8212 19.7718 37.2586 19.6694 37.7379C19.5671 38.2172 19.6091 38.7164 19.7902 39.1714C19.9712 39.6264 20.2829 40.0163 20.6853 40.2911C21.0877 40.5659 21.5623 40.7129 22.0481 40.7134C22.3652 40.736 22.6835 40.6913 22.9825 40.5823C23.2814 40.4732 23.5544 40.3021 23.7839 40.08C24.0133 39.858 24.1941 39.5899 24.3146 39.293C24.4351 38.9961 24.4926 38.6771 24.4835 38.3564V38.3564Z" fill="#76767F"></path><path d="M29.1546 38.5578C29.1526 37.4935 29.4636 36.4526 30.048 35.5668C30.6325 34.6809 31.4642 33.9899 32.4379 33.5813C33.4116 33.1726 34.4836 33.0647 35.5182 33.2711C36.5527 33.4775 37.5033 33.989 38.2497 34.7408C38.9961 35.4926 39.5047 36.451 39.7112 37.4947C39.9177 38.5383 39.8127 39.6203 39.4096 40.6037C39.0065 41.5872 38.3234 42.4278 37.4466 43.0193C36.5699 43.6108 35.5391 43.9265 34.4845 43.9265C33.7832 43.9345 33.0873 43.8013 32.4377 43.5345C31.7881 43.2676 31.1978 42.8727 30.7014 42.3726C30.205 41.8726 29.8125 41.2777 29.5469 40.6226C29.2813 39.9675 29.1479 39.2655 29.1546 38.5578V38.5578ZM36.8001 38.5578C36.7883 38.0984 36.6426 37.6526 36.3811 37.2764C36.1196 36.9001 35.7539 36.61 35.3299 36.4424C34.9059 36.2748 34.4423 36.237 33.9971 36.3339C33.552 36.4308 33.145 36.658 32.8271 36.987C32.5092 37.3161 32.2946 37.7325 32.21 38.1841C32.1254 38.6357 32.1746 39.1024 32.3515 39.5259C32.5284 39.9494 32.8251 40.3108 33.2045 40.565C33.5838 40.8192 34.0291 40.9549 34.4845 40.9551C34.7944 40.961 35.1022 40.9025 35.3887 40.7831C35.6752 40.6637 35.9343 40.4859 36.1497 40.261C36.3651 40.036 36.5322 39.7687 36.6407 39.4757C36.7492 39.1826 36.7966 38.8702 36.7801 38.5578H36.8001Z" fill="#76767F"></path><path d="M41.2017 30.7617C41.2017 30.3991 41.3083 30.0447 41.5079 29.7432C41.7075 29.4417 41.9912 29.2068 42.3231 29.068C42.655 28.9293 43.0203 28.893 43.3727 28.9637C43.725 29.0344 44.0487 29.209 44.3028 29.4654C44.5568 29.7218 44.7298 30.0484 44.7999 30.404C44.87 30.7596 44.834 31.1282 44.6966 31.4632C44.5591 31.7982 44.3262 32.0845 44.0275 32.2859C43.7288 32.4874 43.3776 32.5949 43.0183 32.5949C42.5373 32.5922 42.0768 32.3983 41.7367 32.055C41.3966 31.7118 41.2043 31.2471 41.2017 30.7617ZM41.5111 33.4813H44.5054V43.6344H41.5111V33.4813Z" fill="#76767F"></path><path d="M57.5606 38.5579C57.5969 39.229 57.5014 39.9008 57.2794 40.5345C57.0574 41.1682 56.7134 41.7513 56.2671 42.2503C55.8209 42.7493 55.2813 43.1543 54.6794 43.442C54.0774 43.7297 53.425 43.8944 52.7598 43.9266C52.2013 43.9536 51.6437 43.8567 51.1263 43.6426C50.6089 43.4286 50.1444 43.1026 49.7655 42.6876V47.7239H46.7711V33.4813H49.7655V34.4382C50.1444 34.0232 50.6089 33.6973 51.1263 33.4832C51.6437 33.2691 52.2013 33.1722 52.7598 33.1993C53.4242 33.2315 54.0757 33.3959 54.6769 33.6829C55.2782 33.97 55.8174 34.374 56.2634 34.8719C56.7095 35.3699 57.0538 35.9518 57.2764 36.5843C57.499 37.2169 57.5956 37.8876 57.5606 38.5579V38.5579ZM54.5663 38.5579C54.5545 38.0851 54.4055 37.6263 54.1378 37.2381C53.8701 36.85 53.4954 36.5496 53.0603 36.3741C52.6251 36.1987 52.1485 36.156 51.6895 36.2512C51.2304 36.3463 50.8092 36.5753 50.4778 36.9097C50.1465 37.2441 49.9196 37.6692 49.8252 38.1325C49.7309 38.5957 49.7733 39.0767 49.9471 39.5158C50.121 39.955 50.4186 40.3331 50.8032 40.6032C51.1878 40.8734 51.6425 41.0238 52.111 41.0357C52.4379 41.0567 52.7655 41.0068 53.0718 40.8894C53.378 40.772 53.6558 40.5899 53.8865 40.3552C54.1172 40.1204 54.2954 39.8386 54.4092 39.5286C54.5231 39.2186 54.5698 38.8876 54.5464 38.5579H54.5663Z" fill="#76767F"></path><path d="M66.8829 40.5924C66.8829 42.9293 64.8867 43.9264 62.6909 43.9264C61.8137 44.0048 60.9334 43.8165 60.1631 43.3856C59.3929 42.9548 58.7681 42.3012 58.3691 41.509L60.9841 40.0082C61.0903 40.3746 61.3175 40.6933 61.628 40.9114C61.9385 41.1294 62.3135 41.2337 62.6909 41.2068C63.4195 41.2068 63.7788 40.9752 63.7788 40.5723C63.7788 39.4542 58.7883 40.0485 58.7883 36.5432C58.7883 34.3273 60.6448 33.2092 62.7807 33.2092C63.5689 33.185 64.3491 33.374 65.0406 33.7566C65.732 34.1391 66.3095 34.7013 66.7132 35.3849L64.0882 36.7749C63.9723 36.5089 63.7823 36.2826 63.5413 36.1234C63.3003 35.9643 63.0188 35.8792 62.7308 35.8784C62.2118 35.8784 61.8924 36.0799 61.8924 36.4526C61.9323 37.6109 66.8829 36.8353 66.8829 40.5924Z" fill="#76767F"></path><path d="M77.902 33.4812V43.6344H74.9077V42.6875C74.5593 43.1082 74.1173 43.4398 73.6177 43.6551C73.1181 43.8705 72.5752 43.9634 72.0331 43.9265C70.0369 43.9265 68.2703 42.466 68.2703 39.7161V33.4812H71.2646V39.2729C71.2383 39.5198 71.2667 39.7694 71.3479 40.0037C71.4291 40.2381 71.561 40.4512 71.7339 40.6277C71.9069 40.8042 72.1167 40.9396 72.348 41.0241C72.5793 41.1086 72.8263 41.1401 73.0712 41.1162C74.1691 41.1162 74.9376 40.4716 74.9376 39.0312V33.4812H77.902Z" fill="#76767F"></path><path d="M95.2091 37.4094V43.6343H92.2148V37.6713C92.2148 36.6641 91.7257 35.9993 90.7676 35.9993C89.8094 35.9993 89.1905 36.7144 89.1905 37.9131V43.6343H86.1962V37.6713C86.1962 36.6641 85.7171 35.9993 84.749 35.9993C83.7808 35.9993 83.182 36.7144 83.182 37.9131V43.6343H80.1877V33.4811H83.182V34.4179C83.4949 34.0042 83.9054 33.676 84.376 33.4631C84.8467 33.2502 85.3626 33.1595 85.8769 33.1991C86.3933 33.1738 86.9074 33.2839 87.3692 33.5187C87.831 33.7534 88.2246 34.1049 88.5118 34.5388C88.8459 34.0851 89.2884 33.7243 89.7981 33.49C90.3077 33.2558 90.8679 33.1557 91.4263 33.1991C93.702 33.1991 95.2091 34.8712 95.2091 37.4094Z" fill="#76767F"></path><path d="M97.7643 33.4208C98.999 33.4208 100 32.4107 100 31.1646C100 29.9185 98.999 28.9083 97.7643 28.9083C96.5295 28.9083 95.5285 29.9185 95.5285 31.1646C95.5285 32.4107 96.5295 33.4208 97.7643 33.4208Z" fill="#76767F"></path><path d="M33.8856 21.1323C39.6681 21.1323 44.3557 16.4017 44.3557 10.5661C44.3557 4.73062 39.6681 0 33.8856 0C28.1031 0 23.4155 4.73062 23.4155 10.5661C23.4155 16.4017 28.1031 21.1323 33.8856 21.1323Z" fill="#76767F"></path><path d="M57.2912 21.1323C63.0736 21.1323 67.7613 16.4017 67.7613 10.5661C67.7613 4.73062 63.0736 0 57.2912 0C51.5087 0 46.821 4.73062 46.821 10.5661C46.821 16.4017 51.5087 21.1323 57.2912 21.1323Z" fill="#76767F"></path><path d="M20.9501 0H0.0199127V21.1222H20.9501V0Z" fill="#76767F"></path></svg>