<svg xmlns="http://www.w3.org/2000/svg" width="114" height="26" viewBox="0 0 114 26" fill="none"><path d="M0 26H25.6734V3.95367e-08H0V26ZM20.7319 10.4983H15.307V5.00437H20.7319V10.4983ZM4.94051 5.00437H10.3685V15.5017H20.7319V20.9956H4.94051V5.00437ZM42.3917 3.95367e-08C39.8528 3.95367e-08 37.371 0.762438 35.26 2.1909C33.149 3.61935 31.5037 5.64968 30.5321 8.02512C29.5605 10.4006 29.3063 13.0144 29.8016 15.5362C30.2969 18.0579 31.5195 20.3743 33.3147 22.1924C35.11 24.0105 37.3973 25.2486 39.8874 25.7502C42.3774 26.2518 44.9585 25.9944 47.3041 25.0104C49.6497 24.0265 51.6545 22.3602 53.065 20.2224C54.4755 18.0846 55.2284 15.5712 55.2284 13C55.2244 9.55342 53.8707 6.24916 51.4642 3.81206C49.0577 1.37496 45.795 0.00402407 42.3917 3.95367e-08V3.95367e-08ZM42.3917 20.9956C40.8301 20.9956 39.3037 20.5267 38.0053 19.6481C36.707 18.7695 35.695 17.5208 35.0975 16.0598C34.4999 14.5988 34.3435 12.9911 34.6482 11.4401C34.9528 9.88913 35.7048 8.46444 36.8089 7.34623C37.9131 6.22802 39.3199 5.46651 40.8514 5.158C42.3829 4.84949 43.9704 5.00783 45.413 5.613C46.8557 6.21817 48.0888 7.24299 48.9563 8.55786C49.8238 9.87274 50.2869 11.4186 50.2869 13C50.2837 15.1196 49.4509 17.1514 47.9709 18.6502C46.491 20.149 44.4846 20.9924 42.3917 20.9956V20.9956ZM101.164 3.95367e-08C98.6254 -0.000200444 96.1434 0.762065 94.0323 2.1904C91.9212 3.61874 90.2757 5.64899 89.304 8.02441C88.3323 10.3998 88.0779 13.0137 88.5731 15.5355C89.0683 18.0574 90.2908 20.3738 92.086 22.192C93.8812 24.0102 96.1685 25.2484 98.6586 25.7501C101.149 26.2518 103.73 25.9944 106.075 25.0105C108.421 24.0266 110.426 22.3604 111.837 20.2225C113.247 18.0847 114 15.5712 114 13C113.996 9.55359 112.642 6.24948 110.236 3.81241C107.83 1.37534 104.567 0.00429228 101.164 3.95367e-08V3.95367e-08ZM101.164 20.9956C99.6027 20.9958 98.0762 20.5271 96.7777 19.6486C95.4792 18.7702 94.4671 17.5215 93.8693 16.0605C93.2716 14.5995 93.1151 12.9918 93.4197 11.4408C93.7242 9.88968 94.4761 8.4649 95.5802 7.34659C96.6843 6.22828 98.0911 5.46667 99.6226 5.15807C101.154 4.84948 102.742 5.00776 104.184 5.6129C105.627 6.21804 106.86 7.24286 107.728 8.55776C108.595 9.87265 109.058 11.4186 109.058 13C109.055 15.1194 108.223 17.1511 106.743 18.6499C105.263 20.1486 103.257 20.9921 101.164 20.9956V20.9956ZM71.7775 3.95367e-08C69.2386 3.95367e-08 66.7568 0.762438 64.6458 2.1909C62.5348 3.61935 60.8895 5.64968 59.9179 8.02512C58.9463 10.4006 58.6921 13.0144 59.1874 15.5362C59.6827 18.0579 60.9053 20.3743 62.7006 22.1924C64.4958 24.0105 66.7831 25.2486 69.2732 25.7502C71.7632 26.2518 74.3443 25.9944 76.6899 25.0104C79.0355 24.0265 81.0403 22.3602 82.4508 20.2224C83.8613 18.0846 84.6142 15.5712 84.6142 13C84.6102 9.55342 83.2565 6.24916 80.85 3.81206C78.4435 1.37496 75.1808 0.00402407 71.7775 3.95367e-08ZM71.7775 20.9956C70.3226 20.9964 68.8958 20.59 67.6547 19.8214C66.4135 19.0527 65.4061 17.9517 64.7438 16.6399C64.0815 15.328 63.79 13.8564 63.9015 12.3873C64.013 10.9183 64.5231 9.50902 65.3756 8.31507C66.228 7.12112 67.3897 6.18892 68.7322 5.62137C70.0748 5.05383 71.5462 4.87301 72.9838 5.09888C74.4215 5.32474 75.7696 5.9485 76.8793 6.90131C77.989 7.85413 78.8171 9.09893 79.2723 10.4983H71.7775V15.5017H79.2723C78.751 17.0985 77.7464 18.4885 76.4012 19.4747C75.0559 20.4608 73.4382 20.9929 71.7775 20.9956V20.9956Z" fill="#76767F"></path></svg>