<svg xmlns="http://www.w3.org/2000/svg" width="126" height="33" viewBox="0 0 126 33" fill="none"><path d="M20.433 7.84894H22.4284V21.8028H28.4146V23.8076H20.433V7.84894ZM34.6303 7.84894C35.8143 7.84894 36.9716 8.2017 37.9561 8.86259C38.9405 9.52348 39.7078 10.4628 40.1609 11.5618C40.6139 12.6609 40.7325 13.8702 40.5015 15.0369C40.2705 16.2036 39.7004 17.2753 38.8632 18.1165C38.026 18.9576 36.9594 19.5305 35.7982 19.7625C34.6369 19.9946 33.4333 19.8755 32.3395 19.4203C31.2456 18.965 30.3107 18.1941 29.6529 17.205C28.9952 16.216 28.6441 15.0531 28.6441 13.8635C28.6441 13.0737 28.7989 12.2916 29.0998 11.5618C29.4006 10.8321 29.8415 10.1691 30.3974 9.61057C30.9533 9.05207 31.6132 8.60904 32.3395 8.30678C33.0658 8.00452 33.8442 7.84894 34.6303 7.84894V7.84894ZM34.6303 17.8732C35.4196 17.8732 36.1912 17.6381 36.8475 17.1975C37.5038 16.7569 38.0153 16.1307 38.3173 15.398C38.6194 14.6653 38.6984 13.8591 38.5444 13.0813C38.3905 12.3035 38.0104 11.589 37.4522 11.0282C36.8941 10.4675 36.183 10.0856 35.4089 9.93085C34.6347 9.77613 33.8323 9.85554 33.1031 10.159C32.3739 10.4625 31.7506 10.9765 31.3121 11.6358C30.8735 12.2952 30.6395 13.0705 30.6395 13.8635C30.6448 14.9235 31.0676 15.9382 31.8154 16.6859C32.5633 17.4335 33.5753 17.8532 34.6303 17.8532V17.8732ZM30.6395 21.8228H38.6211V23.8277H30.6395V21.8228ZM56.1807 23.8277H54.1853V22.3942C52.8985 23.2992 51.3662 23.7856 49.7954 23.7876C48.456 23.7966 47.1359 23.4668 45.9566 22.8285C44.7774 22.1903 43.777 21.2641 43.0476 20.1353C42.3182 19.0066 41.8832 17.7116 41.7828 16.3696C41.6824 15.0276 41.9197 13.6817 42.473 12.4561C43.0262 11.2305 43.8775 10.1644 44.9485 9.35617C46.0195 8.54794 47.2757 8.0235 48.6014 7.83119C49.9271 7.63887 51.2797 7.78486 52.5344 8.2557C53.7892 8.72654 54.9059 9.50709 55.7816 10.5254L54.315 11.8386C53.649 11.0904 52.8071 10.5216 51.8663 10.1841C50.9254 9.84651 49.9154 9.7509 48.9284 9.90597C47.9413 10.061 47.0086 10.4619 46.2152 11.0719C45.4218 11.6819 44.793 12.4817 44.386 13.3985C43.9791 14.3152 43.807 15.3197 43.8854 16.3204C43.9638 17.3211 44.2902 18.2861 44.8349 19.1276C45.3796 19.9691 46.1253 20.6602 47.0039 21.138C47.8825 21.6157 48.8662 21.8649 49.8652 21.8629C50.6944 21.8646 51.5141 21.6864 52.2683 21.3404C53.0225 20.9943 53.6935 20.4887 54.2352 19.8581H48.8476V17.8532H56.2007L56.1807 23.8277ZM63.5238 7.88904C64.7078 7.88904 65.8651 8.24179 66.8496 8.90268C67.834 9.56357 68.6013 10.5029 69.0544 11.6019C69.5074 12.701 69.626 13.9103 69.395 15.077C69.164 16.2437 68.5939 17.3154 67.7567 18.1566C66.9195 18.9977 65.8529 19.5706 64.6917 19.8026C63.5304 20.0347 62.3268 19.9156 61.233 19.4604C60.1391 19.0051 59.2042 18.2342 58.5464 17.2451C57.8887 16.2561 57.5376 15.0932 57.5376 13.9036C57.5323 13.1087 57.6839 12.3206 57.9836 11.585C58.2834 10.8493 58.7252 10.1806 59.2838 9.6176C59.8423 9.05457 60.5063 8.60837 61.2375 8.30479C61.9687 8.00121 62.7526 7.84628 63.5438 7.84894L63.5238 7.88904ZM63.5238 17.9133C64.3131 17.9133 65.0847 17.6782 65.741 17.2376C66.3973 16.797 66.9088 16.1708 67.2108 15.4381C67.5129 14.7054 67.5919 13.8992 67.4379 13.1214C67.2839 12.3436 66.9039 11.6291 66.3457 11.0683C65.7876 10.5076 65.0765 10.1257 64.3024 9.97095C63.5282 9.81623 62.7258 9.89564 61.9966 10.1991C61.2674 10.5026 60.6441 11.0165 60.2056 11.6759C59.7671 12.3353 59.533 13.1106 59.533 13.9036C59.5487 14.9601 59.9789 15.9676 60.7299 16.7072C61.481 17.4468 62.4922 17.8586 63.5438 17.8532L63.5238 17.9133ZM59.533 21.8629H67.5146V23.8678H59.533V21.8629ZM71.6351 7.84894H73.6305V23.7876H71.6351V7.84894ZM76.3942 7.84894H78.3896C78.4924 7.83799 78.5961 7.83799 78.6989 7.84894C79.5346 7.75785 80.38 7.84462 81.1801 8.10359C81.9802 8.36256 82.717 8.78793 83.3426 9.35201C83.9683 9.91609 84.4686 10.6062 84.8112 11.3775C85.1537 12.1488 85.3307 12.9839 85.3307 13.8284C85.3307 14.673 85.1537 15.5081 84.8112 16.2794C84.4686 17.0507 83.9683 17.7408 83.3426 18.3049C82.717 18.869 81.9802 19.2943 81.1801 19.5533C80.38 19.8123 79.5346 19.899 78.6989 19.8079H78.3896V23.8177H76.3942V7.84894ZM78.3896 9.85381V17.783H78.6989C79.2625 17.8584 79.8356 17.812 80.3799 17.6467C80.9241 17.4815 81.427 17.2014 81.8548 16.825C82.2825 16.4487 82.6253 15.9848 82.8601 15.4646C83.095 14.9443 83.2165 14.3797 83.2165 13.8084C83.2165 13.2371 83.095 12.6725 82.8601 12.1522C82.6253 11.6319 82.2825 11.1681 81.8548 10.7918C81.427 10.4154 80.9241 10.1353 80.3799 9.97003C79.8356 9.80481 79.2625 9.75835 78.6989 9.83376C78.5902 9.84512 78.4831 9.86866 78.3796 9.90393L78.3896 9.85381ZM92.7665 9.00174L91.2899 10.1746C91.0351 9.90714 90.7097 9.71831 90.3518 9.63028C89.994 9.54225 89.6185 9.55868 89.2696 9.67763C88.9207 9.79659 88.6128 10.0131 88.3822 10.3018C88.1515 10.5905 88.0077 10.9393 87.9675 11.3073V11.4677C87.9675 12.3499 88.5761 12.9413 89.7634 13.0215C94.3329 13.3022 96.4281 15.4574 96.4281 18.3043V18.4847C96.3101 19.6115 95.8725 20.6805 95.1673 21.5646C94.4621 22.4487 93.519 23.1107 92.4502 23.4718C91.3814 23.8329 90.2318 23.878 89.1382 23.6017C88.0446 23.3254 87.0531 22.7392 86.2814 21.913L87.8079 20.7302C88.1632 21.1128 88.5971 21.4131 89.0795 21.6105C89.5619 21.8078 90.0812 21.8974 90.6015 21.8729C91.5624 21.9238 92.5058 21.5998 93.2346 20.9684C93.9633 20.337 94.4212 19.4472 94.5125 18.4847V18.3444C94.5125 15.6679 91.8985 15.1767 89.6337 14.9562C87.5385 14.7557 86.032 13.4425 86.032 11.5479V11.4677C86.1059 10.4813 86.5539 9.56113 87.2835 8.89705C88.0132 8.23297 88.9688 7.87572 89.953 7.89907C90.4745 7.88359 90.9935 7.9782 91.4764 8.17676C91.9593 8.37533 92.3954 8.67344 92.7565 9.05186L92.7665 9.00174ZM104.24 21.7526C106.724 21.7526 108.69 19.0561 108.69 15.7381V7.71863H110.685V15.7381C110.685 20.1488 107.812 23.7074 104.28 23.7074C100.748 23.7074 97.8747 20.1488 97.8747 15.7381V7.71863H99.8701V15.7381C99.7903 19.1062 101.756 21.8028 104.23 21.8028L104.24 21.7526ZM126 23.7575H124.005V13.8335L119.405 19.848L114.806 13.8335V23.7876H112.81V7.84894L119.395 16.5601L125.98 7.84894L126 23.7575Z" fill="#76767F"></path><path d="M10.855 5.45322C10.855 4.00693 10.2832 2.61989 9.26534 1.59721C8.24748 0.574533 6.86698 0 5.42751 0C3.98805 0 2.60754 0.574533 1.58968 1.59721C0.571826 2.61989 0 4.00693 0 5.45322V21.9432L4.46971 25.161V33H6.38531V25.161L10.855 21.9432V5.45322ZM8.93943 14.6756L6.38531 17.2418V14.836L8.93943 12.2697V14.6756ZM1.9555 12.2697L4.50962 14.836V17.2418L1.9555 14.6756V12.2697ZM8.93943 9.54313L5.42751 13.0717L1.91559 9.46294V7.0571L5.42751 10.5857L8.93943 7.0571V9.54313ZM5.42751 1.92466C6.19988 1.9281 6.94984 2.18583 7.56251 2.65837C8.17519 3.13092 8.6168 3.79223 8.8197 4.54101L5.42751 7.93924L2.03532 4.54101C2.2308 3.78477 2.66923 3.11451 3.28257 2.63419C3.89592 2.15388 4.64989 1.89038 5.42751 1.88457V1.92466ZM1.91559 20.9708V17.3621L4.46971 19.9283V22.7953L1.91559 20.9708ZM6.38531 22.8053V19.9283L8.93943 17.3621V20.9608L6.38531 22.8053Z" fill="#76767F"></path></svg>