<svg xmlns="http://www.w3.org/2000/svg" width="129" height="42" viewBox="0 0 129 42" fill="none"><path d="M11.762 17.2335C11.7255 18.0903 11.7073 19.1751 11.7073 20.4877C11.7073 21.8003 11.7255 22.8941 11.762 23.7692C11.7984 24.6261 11.8713 25.3097 11.9807 25.8202C12.1083 26.3306 12.2815 26.6861 12.5003 26.8867C12.7373 27.0872 13.0472 27.1875 13.4301 27.1875C13.8129 27.1875 14.1137 27.0872 14.3325 26.8867C14.5695 26.6861 14.7427 26.3306 14.8521 25.8202C14.9797 25.3097 15.0617 24.6261 15.0982 23.7692C15.1347 22.8941 15.1529 21.8003 15.1529 20.4877C15.1529 19.1751 15.1347 18.0903 15.0982 17.2335C15.0617 16.3584 14.9797 15.6656 14.8521 15.1552C14.7427 14.6447 14.5695 14.2892 14.3325 14.0887C14.1137 13.8881 13.8129 13.7878 13.4301 13.7878C13.0472 13.7878 12.7373 13.8881 12.5003 14.0887C12.2815 14.2892 12.1083 14.6447 11.9807 15.1552C11.8713 15.6656 11.7984 16.3584 11.762 17.2335Z" fill="#76767F"></path><path fill-rule="evenodd" clip-rule="evenodd" d="M12.7308 0.1733C6.13698 0.3144 0.895774 5.7556 1.00157 12.35L1.13158 20.4524L1.00157 28.5548C0.895774 35.1493 6.13698 40.5905 12.7308 40.7315L20.8344 40.9049L28.938 40.7315C35.5318 40.5905 40.7731 35.1493 40.6673 28.5548L40.5373 20.4524L40.6673 12.35C40.7731 5.7556 35.5318 0.3144 28.938 0.1733L20.8344 0L12.7308 0.1733ZM21.1144 30.7698L18.0516 33.4224L15.2623 30.4143C15.0435 30.4508 14.8247 30.4782 14.606 30.4964C14.4054 30.5328 14.1775 30.5511 13.9223 30.5511H13.4301C12.1357 30.5511 11.0418 30.3779 10.1485 30.0315C9.25517 29.6851 8.53507 29.1108 7.98817 28.3087C7.44127 27.4883 7.04928 26.44 6.81228 25.1639C6.57528 23.8695 6.45677 22.3107 6.45677 20.4877C6.45677 18.6646 6.57528 17.115 6.81228 15.8388C7.04928 14.5444 7.44127 13.4962 7.98817 12.694C8.53507 11.8736 9.25517 11.2811 10.1485 10.9165C11.0418 10.5336 12.1357 10.3422 13.4301 10.3422C14.7245 10.3422 15.8183 10.5336 16.7116 10.9165C17.6049 11.2811 18.3251 11.8736 18.872 12.694C19.4189 13.4962 19.8109 14.5444 20.0479 15.8388C20.2849 17.115 20.4034 18.6646 20.4034 20.4877C20.4034 22.3654 20.2758 23.9515 20.0205 25.2459C19.7653 26.5403 19.346 27.5977 18.7626 28.4181L21.1144 30.7698ZM29.7466 17.753V16.6592C29.7466 15.5471 29.6372 14.7905 29.4184 14.3895C29.1997 13.9884 28.8442 13.7878 28.3519 13.7878C27.9691 13.7878 27.6592 13.8881 27.4222 14.0887C27.2034 14.2892 27.0302 14.6447 26.9026 15.1552C26.7932 15.6656 26.7203 16.3584 26.6838 17.2335C26.6473 18.0903 26.6291 19.1751 26.6291 20.4877C26.6291 21.8003 26.6473 22.8941 26.6838 23.7692C26.7203 24.6261 26.7932 25.3097 26.9026 25.8202C27.0302 26.3306 27.2034 26.6861 27.4222 26.8867C27.6592 27.0872 27.9691 27.1875 28.3519 27.1875C28.6618 27.1875 28.9171 27.1146 29.1176 26.9687C29.3182 26.8046 29.4731 26.5403 29.5825 26.1757C29.6919 25.8111 29.7648 25.3279 29.8013 24.7263C29.856 24.1065 29.8833 23.3317 29.8833 22.4019H34.8056V23.8513C34.8056 25.2186 34.6233 26.3398 34.2587 27.2148C33.8941 28.0899 33.411 28.7827 32.8094 29.2931C32.2077 29.7854 31.515 30.1135 30.731 30.2776C29.9654 30.4599 29.1723 30.5511 28.3519 30.5511C26.9299 30.5511 25.7632 30.3779 24.8516 30.0315C23.9401 29.6851 23.2291 29.1108 22.7186 28.3087C22.2081 27.4883 21.8526 26.44 21.6521 25.1639C21.4698 23.8695 21.3786 22.3107 21.3786 20.4877C21.3786 18.6281 21.488 17.0512 21.7068 15.7568C21.9438 14.4624 22.3358 13.4141 22.8827 12.612C23.4296 11.8098 24.1497 11.2355 25.043 10.8891C25.9363 10.5245 27.0393 10.3422 28.3519 10.3422C29.5005 10.3422 30.4758 10.4881 31.278 10.7798C32.0801 11.0715 32.7273 11.4908 33.2196 12.0377C33.73 12.5664 34.0946 13.2136 34.3134 13.9793C34.5504 14.7267 34.6689 15.5745 34.6689 16.5225V17.753H29.7466Z" fill="#76767F"></path><path fill-rule="evenodd" clip-rule="evenodd" d="M64.5652 13.9364L69.0234 18.5629L73.4816 13.9364H81.2273L72.8904 21.8676L81.2273 29.7987H73.4816L69.0234 25.1604L64.5652 29.7987H56.8077L65.1447 21.8676L56.8077 13.9364H64.5652ZM64.1354 21.8676L55.0679 13.2415H64.8616L69.0234 17.5604L73.1852 13.2415H82.6293V13.2297H98.6353C102.295 13.1923 105.393 16.2529 105.343 19.9252C105.342 21.2461 104.985 22.4637 104.27 23.5474C103.732 24.3677 103.05 25.0426 102.233 25.5558L105.646 29.9379V27.096C105.646 24.8694 107.31 23.4499 109.224 22.5085C111.157 21.5581 113.596 20.9643 115.627 20.4839C115.628 20.4837 115.629 20.4834 115.63 20.4832L115.653 20.4774C116.905 20.1695 117.971 19.9074 118.73 19.6247C119.114 19.4814 119.366 19.3517 119.51 19.2415C119.528 19.2275 119.543 19.2151 119.556 19.2044C119.512 19.164 119.422 19.1037 119.245 19.0342C118.832 18.8725 118.127 18.7507 117.059 18.7504C115.918 18.7622 114.948 18.855 114.286 19.0872C113.96 19.2017 113.763 19.3321 113.652 19.4545C113.558 19.5596 113.502 19.6843 113.507 19.8799L113.524 20.5915H105.894V19.8966C105.894 18.47 106.174 17.2772 106.734 16.2999C107.297 15.3182 108.117 14.6014 109.117 14.0873C111.079 13.0786 113.782 12.8284 116.796 12.8284C119.882 12.8284 122.444 13.1845 124.258 14.1013C125.176 14.5659 125.922 15.1842 126.435 15.9883C126.949 16.7945 127.201 17.7435 127.201 18.8226C127.201 20.8195 125.996 22.0914 124.519 22.9204C123.085 23.7253 121.28 24.1824 119.781 24.5481H126.941V30.4701H106.06L106.069 30.4819H97.7053L94.7133 26.6107H90.2183V30.4819H82.9543L82.9673 30.4937H73.1847L69.0234 26.1643L64.8621 30.4937H55.0679L64.1354 21.8676ZM82.6293 30.1719V13.5632L73.8996 21.8676L82.6293 30.1719ZM95.0563 25.9158L98.0483 29.7869H104.646L101.181 25.3374C101.398 25.2369 101.605 25.1257 101.804 25.0041C102.562 24.5399 103.192 23.9232 103.688 23.1658C104.327 22.198 104.646 21.1122 104.646 19.9202C104.694 16.6391 101.915 13.8892 98.6393 13.9246H83.3253V29.7869H89.5213V25.9158H95.0563ZM116.134 25.243C116.351 24.9777 116.744 24.7521 117.266 24.5481C117.881 24.3073 118.673 24.0965 119.563 23.8858C122.614 23.1422 126.505 22.1272 126.505 18.8226C126.505 14.9514 122.91 13.5233 116.796 13.5233C111.047 13.5233 106.97 14.4599 106.616 19.2016C106.599 19.4248 106.59 19.6563 106.59 19.8966H112.811C112.81 19.8704 112.81 19.8446 112.811 19.8192C112.845 18.4093 114.791 18.0786 117.056 18.0554C119.267 18.0554 120.284 18.5511 120.284 19.2239C120.284 20.0543 118.322 20.537 115.858 21.1429L115.791 21.1594C111.699 22.1272 106.342 23.4727 106.342 27.096V29.7751H126.244V25.243H116.134ZM119.595 19.2577C119.594 19.2579 119.591 19.2533 119.589 19.2431C119.595 19.2523 119.596 19.2574 119.595 19.2577ZM97.7423 19.9202C97.7423 19.5487 97.4503 19.2579 97.0783 19.2579H90.2183V20.5707H97.0783C97.2783 20.5707 97.4183 20.51 97.5433 20.3848C97.6863 20.2422 97.7423 20.0996 97.7423 19.9202ZM98.4383 19.9202C98.4383 19.1648 97.8353 18.5629 97.0783 18.5629H89.5213V21.2656H97.0783C97.4563 21.2656 97.7763 21.1358 98.0363 20.8762C98.3083 20.6047 98.4383 20.2861 98.4383 19.9202Z" fill="#76767F"></path><path d="M57.3812 41.2423H60.3491V37.1786L63.3225 41.2423H64.8064L67.7799 37.1786V41.2423H70.7478V33.6249H67.038L64.0645 37.4336L61.0967 33.6249H57.3812V41.2423Z" fill="#76767F"></path><path d="M77.0003 33.4379C74.1347 33.4436 71.7899 34.271 71.8012 37.1559V37.7113C71.7899 40.5905 74.1347 41.4237 77.0003 41.4293C79.8603 41.4237 82.2053 40.5905 82.1943 37.7113V37.1559C82.1943 34.2767 79.8663 33.4379 77.0003 33.4379ZM79.2263 37.5243C79.2433 38.7712 78.2123 38.9979 77.0003 39.0149C75.7829 38.9979 74.752 38.7712 74.769 37.5243V37.3373C74.752 36.096 75.7829 35.8693 77.0003 35.8523C78.2123 35.8693 79.2433 36.096 79.2263 37.3373V37.5243Z" fill="#76767F"></path><path d="M90.5083 37.445C90.5083 38.2101 90.0723 38.8392 89.3023 38.8392H86.0513V36.0507H89.3023C90.0723 36.0507 90.5083 36.6741 90.5083 37.445ZM83.0833 33.6363V41.2536H89.8573C91.9473 41.282 93.4993 39.5137 93.4823 37.445C93.4993 35.3649 91.9473 33.6079 89.8573 33.6363H83.0833Z" fill="#76767F"></path><path d="M101.745 37.53C101.762 38.7825 100.732 38.9979 99.5193 39.0149C98.3023 38.9979 97.2773 38.7825 97.2883 37.53V33.6249H94.3203V37.717C94.3093 40.5962 96.6653 41.4237 99.5193 41.4293C102.374 41.4237 104.73 40.5962 104.719 37.717V33.6249H101.745V37.53Z" fill="#76767F"></path><path d="M106.055 33.6249V41.2423H114.965V38.8279H109.023V33.6249H106.055Z" fill="#76767F"></path><path d="M115.978 41.2537H124.888V39.2984H118.946V38.3235H124.888V36.5609H118.946V35.586H124.888V33.6364H115.978V41.2537Z" fill="#76767F"></path><path d="M59.09 4.60564V3.00034H63.4889C63.702 3.00034 63.8875 3.07744 64.0387 3.23864C64.1968 3.39294 64.2724 3.58214 64.2724 3.80644C64.2724 4.02384 64.1968 4.21304 64.0387 4.37434C63.8875 4.52854 63.702 4.60564 63.4889 4.60564H59.09ZM55.4885 0.245441V9.66684H59.09V7.36754H64.3893C66.2932 7.39564 67.9084 5.74824 67.8809 3.80644C67.9084 1.85774 66.2932 0.224341 64.3893 0.245441H55.4885Z" fill="#76767F"></path><path d="M75.0496 0C71.5718 0.007 68.7263 1.0305 68.74 4.5986V5.2856C68.7263 8.8467 71.5718 9.8771 75.0496 9.8841C78.5203 9.8771 81.3663 8.8467 81.3523 5.2856V4.5986C81.3523 1.0375 78.5273 0 75.0496 0ZM77.7503 5.0542C77.7713 6.5964 76.5203 6.8768 75.0496 6.8979C73.5719 6.8768 72.321 6.5964 72.3416 5.0542V4.8229C72.321 3.2877 73.5719 3.0073 75.0496 2.9863C76.5203 3.0073 77.7713 3.2877 77.7503 4.8229V5.0542Z" fill="#76767F"></path><path d="M95.3943 6.21086L93.2563 0.245361H89.2013L87.0573 6.21086L84.9193 0.245361H80.8643L84.9193 9.66676H89.2013L91.2293 4.95606L93.2563 9.66676H97.5383L101.594 0.245361H97.5383L95.3943 6.21086Z" fill="#76767F"></path><path d="M101.869 9.66676H112.68V7.24836H105.47V6.04256H112.68V3.86246H105.47V2.65676H112.68V0.245361H101.869V9.66676Z" fill="#76767F"></path><path d="M114.598 0.238359V9.65986H118.199V7.36056H121.416L123.155 9.65986H126.99L124.976 7.01706C125.581 6.72966 126.069 6.29506 126.433 5.72726C126.805 5.15246 126.99 4.50756 126.99 3.79946C127.018 1.85066 125.402 0.217359 123.499 0.238359H114.598ZM122.591 2.99336C123.031 2.99336 123.382 3.35086 123.382 3.79946C123.382 4.01676 123.306 4.20606 123.148 4.36726C122.997 4.52156 122.811 4.59866 122.591 4.59866H118.199V2.99336H122.591Z" fill="#76767F"></path></svg>