<svg xmlns="http://www.w3.org/2000/svg" width="142" height="58" viewBox="0 0 142 58" fill="none"><path fill-rule="evenodd" clip-rule="evenodd" d="M29 0H112.726C128.742 0 141.726 12.9837 141.726 29C141.726 45.0163 128.742 58 112.726 58H29C12.9837 58 0 45.0163 0 29C0 12.9837 12.9837 0 29 0ZM29 2.8065C14.5337 2.8065 2.8065 14.5337 2.8065 29C2.8065 43.4663 14.5337 55.1936 29 55.1936H112.726C127.192 55.1936 138.919 43.4663 138.919 29C138.919 14.5337 127.192 2.8065 112.726 2.8065H29Z" fill="#76767F"></path><path fill-rule="evenodd" clip-rule="evenodd" d="M119.597 44.1597C121.703 40.4209 123.094 35.0668 123.094 29C123.094 22.9332 121.703 17.5792 119.597 13.8403C117.441 10.0143 114.902 8.41941 112.726 8.41941C110.55 8.41941 108.01 10.0143 105.855 13.8403C103.749 17.5792 102.358 22.9332 102.358 29C102.358 35.0668 103.749 40.4209 105.855 44.1597C108.01 47.9858 110.55 49.5807 112.726 49.5807C114.902 49.5807 117.441 47.9858 119.597 44.1597ZM112.726 52.3871C120.002 52.3871 125.901 41.9164 125.901 29C125.901 16.0837 120.002 5.61292 112.726 5.61292C105.45 5.61292 99.551 16.0837 99.551 29C99.551 41.9164 105.45 52.3871 112.726 52.3871Z" fill="#76767F"></path><path fill-rule="evenodd" clip-rule="evenodd" d="M111.323 50.2043V7.328H114.129V50.2043H111.323Z" fill="#76767F"></path><path d="M70.7299 18.4544C71.3344 18.4459 71.8484 18.3329 71.84 17.7115V17.6183C71.8484 16.9997 71.3344 16.8867 70.7299 16.8783C70.1227 16.8867 69.6086 16.9997 69.6171 17.6183V17.7115C69.6086 18.3329 70.1227 18.4459 70.7299 18.4544Z" fill="#76767F"></path><path d="M48.3058 16.8811C48.4866 16.8811 48.6306 17.0251 48.6306 17.2059C48.6306 17.2935 48.5995 17.3697 48.5346 17.4347C48.4724 17.4968 48.3962 17.5279 48.3058 17.5279H46.5009V16.8811H48.3058Z" fill="#76767F"></path><path d="M58.7905 16.8726L59.3103 17.994H58.268L58.7905 16.8726Z" fill="#76767F"></path><path d="M82.5 17.994L81.9801 16.8726L81.4576 17.994H82.5Z" fill="#76767F"></path><path d="M45.0566 40.4855L44.2884 38.8279L43.5159 40.4855H45.0566Z" fill="#76767F"></path><path d="M62.297 41.0367C62.8648 41.0367 63.1863 40.5732 63.1863 40.0095C63.1863 39.4417 62.8648 38.9824 62.297 38.9824H59.9003V41.0367H62.297Z" fill="#76767F"></path><path d="M69.2574 38.8279L70.0257 40.4855H68.4849L69.2574 38.8279Z" fill="#76767F"></path><path d="M79.0738 39.3207C79.0738 39.0535 78.8609 38.8405 78.5937 38.8405H75.9256V39.7967H78.5937C78.7273 39.7967 78.84 39.7508 78.9319 39.6589C79.0279 39.5629 79.0738 39.4501 79.0738 39.3207Z" fill="#76767F"></path><path d="M87.421 40.0095C87.421 40.5732 87.099 41.0367 86.531 41.0367H84.134V38.9824H86.531C87.099 38.9824 87.421 39.4417 87.421 40.0095Z" fill="#76767F"></path><path d="M32.1274 23.118L34.912 29.5472L37.8331 23.118H42.4605V33.8333H38.9934V28.0457L36.4545 33.8333H33.3422L30.8306 28.0457V33.8333H27.3499V23.118H32.1274Z" fill="#76767F"></path><path d="M56.6667 33.8333V31.1715H48.9817V29.7792H56.3528V27.1721H48.9817V25.7934H56.5712V23.118H45.3781V33.8333H56.6667Z" fill="#76767F"></path><path d="M64.8445 33.9971C62.5649 33.9971 60.6676 33.3146 59.6029 31.9359C58.975 31.1306 58.5928 29.9157 58.5928 28.4961C58.5928 27.213 58.9204 26.0664 59.6302 25.1519C60.7085 23.8141 62.6605 22.9269 65.568 22.9269C68.9122 22.9269 70.8778 23.9506 71.7241 25.6706C71.8447 25.9202 71.9326 26.2297 71.9846 26.5098C72.015 26.6737 72.0331 26.8277 72.0381 26.9537H68.5027C68.4618 26.7626 68.2707 26.4759 68.025 26.2712C67.6428 25.9299 66.8238 25.6569 65.6362 25.6569C64.3121 25.6569 63.4112 25.9163 62.8789 26.5169C62.5103 26.94 62.3192 27.5816 62.3192 28.5234C62.3192 29.4243 62.5103 30.0249 62.8379 30.4481C63.3293 31.0214 64.2439 31.3899 65.6635 31.3899C67.0285 31.3899 68.0796 30.9804 68.4754 30.5163C68.5436 30.4376 68.6058 30.3388 68.658 30.2368C68.7417 30.0735 68.7999 29.9021 68.8167 29.7929H65.0083V27.486H72.1336V33.8333H69.1989L69.1033 32.7959C68.975 32.9021 68.8358 33.0031 68.6854 33.098C67.8112 33.6494 66.5564 33.9971 64.8445 33.9971Z" fill="#76767F"></path><path d="M62.7631 28.5234C62.7631 27.6327 62.9452 27.1176 63.2124 26.8099C63.6143 26.3576 64.3476 26.1008 65.6362 26.1008C66.782 26.1008 67.4676 26.3686 67.7293 26.6023L67.735 26.6073L67.7408 26.6122C67.8308 26.6872 67.9131 26.7796 67.9753 26.8697C68.0368 26.9587 68.0614 27.0205 68.0675 27.0421H64.5644V30.2368H68.1303C68.0026 30.3811 67.7285 30.5612 67.293 30.7059C66.8595 30.8499 66.3032 30.946 65.6635 30.946C64.3147 30.946 63.5561 30.5969 63.1822 30.1675C62.9378 29.8471 62.7631 29.3557 62.7631 28.5234Z" fill="#76767F"></path><path d="M80.3902 29.0078L81.4072 27.0662L82.368 29.0078H80.3902Z" fill="#76767F"></path><path fill-rule="evenodd" clip-rule="evenodd" d="M84.243 31.854L85.185 33.8333H89.13L83.724 23.118H79.3153L73.5959 33.8333H77.4589L78.4553 31.854H84.243ZM79.6565 29.4516L81.0079 26.8718L81.4174 25.889L81.7996 26.8581L83.083 29.4516H79.6565Z" fill="#76767F"></path><path fill-rule="evenodd" clip-rule="evenodd" d="M29 52.3871C21.6324 52.3871 15.0605 48.9802 10.7738 43.656H23.0752V42.0968H9.62122C7.61412 39.1328 6.26921 35.6839 5.79881 31.9624H23.0752V30.4033H5.65432C5.62682 29.939 5.61292 29.4711 5.61292 29C5.61292 25.9134 6.21081 22.9666 7.29721 20.2688H23.0752V18.7097H7.99261C9.64541 15.3419 12.0841 12.4297 15.0698 10.2124H98.796C93.057 14.4742 89.339 21.3028 89.339 29C89.339 33.8526 90.817 38.3601 93.347 42.0968H91.911V43.6559H94.499C98.741 48.9238 105.219 52.3147 112.492 52.3859V52.3871H29ZM68.137 17.5279C68.1313 16.0902 69.3007 15.6778 70.7299 15.675C72.1591 15.675 73.32 16.093 73.32 17.5279V17.8047C73.3257 19.2396 72.1563 19.6548 70.7299 19.6576C69.3007 19.6548 68.1313 19.2396 68.137 17.8047V17.5279ZM26.3279 19.5644V15.7682H27.808V19.5644H26.3279ZM30.6297 15.7682L32.2962 17.7793V15.7682H33.7791V19.5644H32.1126L30.0733 17.2455V19.5644H28.5932V15.7682H30.6297ZM37.5329 19.5701V16.9771H39.2926V15.7739H34.2932V16.9771H36.0529V19.5701H37.5329ZM44.2328 19.5701H39.7898V15.7739H44.2328V16.7455H41.2698V17.2313H44.2328V18.1098H41.2698V18.5956H44.2328V19.5701ZM45.0208 15.771V19.5672H46.5009V18.6408H47.8228L48.5374 19.5672H50.1135L49.2859 18.5024C49.5345 18.3866 49.735 18.2114 49.8847 17.9827C50.0372 17.751 50.1135 17.4912 50.1135 17.2059C50.1248 16.4207 49.461 15.7626 48.6786 15.771H45.0208ZM52.6104 15.7682L54.2769 17.7793V15.7682H55.7598V19.5644H54.0933L52.054 17.2455V19.5644H50.5739V15.7682H52.6104ZM55.8728 19.5701H57.5393L57.8387 18.9204H59.7396L60.039 19.5701H61.7055L59.669 15.7739H57.9093L55.8728 19.5701ZM63.9651 16.9771V19.5701H62.4851V16.9771H60.7254V15.7739H65.7248V16.9771H63.9651ZM66.2219 15.7682V19.5644H67.702V15.7682H66.2219ZM77.4665 17.7793L75.8 15.7682H73.7635V19.5644H75.2436V17.2455L77.2829 19.5644H78.9494V15.7682H77.4665V17.7793ZM80.7288 19.5701H79.0624L81.0989 15.7739H82.859L84.895 19.5701H83.229L82.929 18.9204H81.0283L80.7288 19.5701ZM85.011 15.7682V19.5644H89.454V18.3611H86.491V15.7682H85.011ZM28.6472 39.045C28.6472 38.5983 29.4823 38.498 30.1629 38.498C30.8477 38.498 31.428 38.6024 31.6786 39.045H33.9709C33.7621 37.2913 32.1295 37.07 30.1629 37.0575C28.1921 37.0575 26.3549 37.4417 26.3549 39.045C26.3507 40.4451 28.542 40.5561 30.1072 40.6354L30.117 40.6359C30.998 40.6776 31.6786 40.7152 31.6786 40.9615C31.6786 41.3958 30.8435 41.5085 30.1629 41.5085C29.4781 41.5085 28.8977 41.3958 28.6472 40.9615H26.3549C26.5637 42.7027 28.1963 42.9407 30.1629 42.9449C32.1337 42.9449 33.9709 42.5649 33.9709 40.9615C33.975 39.5573 31.7837 39.4463 30.2185 39.367L30.2088 39.3665C29.3278 39.3248 28.6472 39.2914 28.6472 39.045ZM38.8269 42.8154V38.9824H41.4282V37.2037H34.0377V38.9824H36.639V42.8154H38.8269ZM42.4386 42.8154H39.9751L42.9856 37.2037H45.5869L48.5974 42.8154H46.1339L45.6913 41.8551H42.8812L42.4386 42.8154ZM54.2426 40.1682L51.7791 37.1953H48.7686V42.8071H50.9565V39.3791L53.9712 42.8071H56.4347V37.1953H54.2426V40.1682ZM57.7123 42.8154V37.2037H62.7062C64.2469 37.1828 65.391 38.4772 65.3784 40.0095C65.391 41.5336 64.2469 42.8363 62.7062 42.8154H57.7123ZM64.9442 42.8154H67.4077L67.8503 41.8551H70.6603L71.1029 42.8154H73.5664L70.556 37.2037H67.9547L64.9442 42.8154ZM73.7376 42.8113V37.1995H79.1448C80.3014 37.187 81.2826 38.1598 81.2659 39.3206C81.2659 39.7423 81.1532 40.1265 80.9277 40.4688C80.7064 40.8071 80.41 41.0659 80.0425 41.2371L81.2659 42.8113H78.936L77.8797 41.4417H75.9256V42.8113H73.7376ZM81.9465 37.2037V42.8154H86.94C88.481 42.8363 89.625 41.5336 89.613 40.0095C89.625 38.4772 88.481 37.1828 86.94 37.2037H81.9465ZM38.5495 34.2772H42.9044V22.6741H37.5472L34.9217 28.4527L32.4189 22.6741H26.906V34.2772H31.2745V30.1837L33.051 34.2772H36.7445L38.5495 30.1626V34.2772ZM44.9342 34.2772H57.1106V30.7276H49.4256V30.2231H56.7967V26.7282H49.4256V26.2373H57.0151V22.6741H44.9342V34.2772ZM68.794 34.2772H72.5776V27.0421H72.4859L72.4816 26.9359C72.466 26.5449 72.3459 25.9374 72.1239 25.4776L72.1232 25.4761L72.1224 25.4746C71.1676 23.534 68.9879 22.483 65.568 22.483C62.5758 22.483 60.474 23.3977 59.2846 24.8733L59.282 24.8764L59.2795 24.8797C58.4965 25.8885 58.1489 27.1374 58.1489 28.4961C58.1489 29.9874 58.5492 31.3061 59.2522 32.2082C60.4339 33.7375 62.4923 34.441 64.8445 34.441C66.498 34.441 67.782 34.127 68.7305 33.5883L68.794 34.2772ZM77.7324 34.2772L78.7288 32.2979H83.963L84.904 34.2772H89.851L83.998 22.6741H79.049L72.8558 34.2772H77.7324ZM89.806 48.5672H26.2715V47.008H89.806V48.5672Z" fill="#76767F"></path><path d="M101.186 8.65322C104.528 6.75402 108.383 5.65432 112.492 5.61402V5.61292H29C24.8037 5.61292 20.8655 6.71802 17.4606 8.65322H101.186Z" fill="#76767F"></path><path d="M112.726 49.5806C124.092 49.5806 133.306 40.3663 133.306 29C133.306 17.6336 124.092 8.41932 112.726 8.41932C105.108 8.41932 98.457 12.5581 94.898 18.7097H91.911V20.2688H94.084C92.84 22.9194 92.145 25.8785 92.145 29C92.145 33.9754 93.911 38.5384 96.849 42.0968H93.347C90.817 38.3601 89.339 33.8526 89.339 29C89.339 16.0836 99.809 5.61292 112.726 5.61292C125.642 5.61292 136.113 16.0836 136.113 29C136.113 41.9163 125.642 52.3871 112.726 52.3871C105.358 52.3871 98.786 48.9802 94.499 43.6559H98.277C101.993 47.3196 107.095 49.5806 112.726 49.5806Z" fill="#76767F"></path><path d="M118.905 42.0967H94.562V39.2903H120.003C119.678 40.2959 119.309 41.2346 118.905 42.0967Z" fill="#76767F"></path><path d="M120.614 42.0967H131.046V39.2903H121.638C121.336 40.2822 120.992 41.2203 120.614 42.0967Z" fill="#76767F"></path><path d="M121.509 30.4032H90.742V27.5967H121.509C121.526 28.0592 121.535 28.5271 121.535 29C121.535 29.4729 121.526 29.9408 121.509 30.4032Z" fill="#76767F"></path><path d="M123.069 30.4032H134.749V27.5967H123.069C123.086 28.0599 123.094 28.5278 123.094 29C123.094 29.4722 123.086 29.9401 123.069 30.4032Z" fill="#76767F"></path><path d="M120.004 18.7097H94.562V15.9033H118.905C119.309 16.7654 119.678 17.7041 120.004 18.7097Z" fill="#76767F"></path><path d="M121.638 18.7097H131.046V15.9033H120.614C120.992 16.7797 121.336 17.7178 121.638 18.7097Z" fill="#76767F"></path></svg>