<svg xmlns="http://www.w3.org/2000/svg" width="102" height="48" viewBox="0 0 102 48" fill="none"><path d="M7.03122 10.1781C6.39592 8.5635 6.67172 6.707 7.25692 5.1456C7.87262 3.5026 8.94472 1.8641 10.5471 1C10.6266 2.7314 10.0977 4.442 9.51982 5.9845C9.00012 7.3719 8.36242 8.85 7.30942 9.9974C7.14762 10.8668 7.02362 11.7338 6.93642 12.5968C7.28542 11.6851 7.85132 10.8541 8.55742 10.1859C9.46652 9.3255 10.8188 8.6616 12.0882 9.0542C11.7164 10.4574 10.8689 11.8025 9.86522 12.7461C9.07522 13.4888 8.03232 14.4405 6.80392 14.4779C6.75332 15.7479 6.78192 17.0063 6.88642 18.2476C7.05972 17.3392 7.43102 16.4838 7.96752 15.8468C8.70452 14.9715 9.79732 13.9021 11.1929 14.081C11.1167 15.5012 10.5502 16.9563 9.76132 18.0497C9.13442 18.9186 8.30682 20.026 7.13212 20.3121C7.32022 21.5318 7.58222 22.7313 7.91462 23.905C7.91782 23.0063 8.11632 22.1242 8.51012 21.4167C9.06512 20.419 9.92952 19.1748 11.3267 19.0775C11.5315 20.4708 11.254 21.9939 10.6942 23.2053C10.2468 24.1736 9.65032 25.4084 8.56302 25.9193C9.01962 27.1821 9.55992 28.4096 10.1794 29.5944C9.96192 28.5732 9.97062 27.4971 10.228 26.5289C10.5827 25.1941 11.4632 23.792 12.8768 23.3851C13.3765 24.8587 13.3076 26.5033 13.0173 28.0011C12.7784 29.2343 12.309 30.6827 11.2568 31.4838C11.9447 32.5939 12.7057 33.6593 13.5356 34.673C13.0897 33.6788 12.8681 32.5915 12.987 31.596C13.1602 30.1458 13.5677 28.5944 15.049 27.8212C15.8894 29.2712 16.0841 30.8979 16.1555 32.5046C16.2132 33.8035 16.0261 35.4056 15.124 36.4623C16.1163 37.494 17.187 38.4596 18.3306 39.35C17.5923 38.4029 17.0753 37.2915 16.9658 36.1924C16.8112 34.6395 16.8868 32.93 18.2649 31.7904C19.4435 33.0214 20.1468 34.8343 20.4915 36.4089C20.7963 37.8011 21.1145 39.4489 20.3888 40.819C21.8442 41.769 23.3979 42.606 25.0406 43.3148C23.8847 42.4911 22.9385 41.361 22.4877 40.1942C21.897 38.6647 21.5316 36.8422 22.6823 35.3104C24.224 36.2979 25.3571 37.9827 26.2498 39.5193C27.0158 40.8378 27.8087 42.6576 27.4153 44.2279C28.3248 44.5365 29.2578 44.8075 30.2131 45.0387L30.1563 45.2732C29.1974 45.0411 28.2608 44.7692 27.3476 44.4597C26.7078 46.3504 24.6119 46.975 22.9169 47.2508C20.5018 47.6437 17.6261 46.8824 15.5643 45.3488C16.6525 43.8109 18.8728 43.6549 20.547 43.5372L20.5688 43.5357C22.4029 43.4068 24.3866 43.579 26.231 44.0582C24.1003 43.2471 22.1066 42.2273 20.2682 41.0284L20.2411 41.0712C19.2337 42.7047 17.2111 42.7684 15.6235 42.6651C13.4692 42.5249 10.982 41.215 9.54252 39.4043C10.8965 38.2163 12.8964 38.5488 14.446 38.8064L14.4535 38.8076C16.183 39.0951 18.0729 39.7223 19.6593 40.688C19.5082 40.569 19.3603 40.4431 19.2166 40.3111C17.6742 39.2114 16.2514 37.9813 14.9603 36.6401C14.9453 36.6551 14.9301 36.67 14.9148 36.6848C13.6594 37.9477 11.831 37.617 10.4041 37.206C8.49462 36.656 6.51432 34.9967 5.56532 33.0918C7.03592 32.2678 8.79412 32.9468 10.1617 33.4839C11.6627 34.0734 13.2508 35.0164 14.4719 36.2185C14.346 36.0597 14.2259 35.8938 14.1124 35.7221C12.9774 34.4411 11.9564 33.0694 11.0588 31.6223L11.0138 31.6505C9.59362 32.567 7.98452 31.9033 6.70922 31.2506C4.98012 30.3657 3.59062 28.4209 2.99022 26.5083C4.52412 26.017 6.03962 26.9813 7.21772 27.745C8.50622 28.5802 9.81142 29.7714 10.7073 31.1375C10.6415 31.0029 10.5802 30.8653 10.5237 30.7251C9.66292 29.2233 8.93162 27.6467 8.33962 26.0112L8.30912 26.0216L8.30662 26.0225C7.01532 26.5134 5.57732 25.7502 4.63982 24.9132C3.33682 23.75 2.41842 21.9617 2.20312 20.2146C3.54942 20.0402 4.81782 21.0818 5.68502 21.9702C6.68322 22.9927 7.57912 24.2012 8.12992 25.5435C8.08972 25.3977 8.05522 25.2496 8.02622 25.1C7.52502 23.5631 7.14532 21.9781 6.89502 20.3577L6.87552 20.3601L6.86892 20.3612C5.50372 20.5891 4.24152 19.5512 3.48742 18.5439C2.42942 17.1304 1.88402 15.1741 2.02072 13.401C3.38062 13.4961 4.41612 14.7898 5.08762 15.8363C5.86482 17.0478 6.50932 18.4189 6.79162 19.8533C6.78302 19.7392 6.77792 19.6244 6.77612 19.5093C6.56882 17.8601 6.49492 16.1771 6.56252 14.4733L6.55862 14.4731C5.17062 14.4231 4.14482 13.1344 3.61522 11.9913C2.85742 10.3555 2.73542 8.2878 3.24122 6.5452C4.56412 6.9165 5.30162 8.434 5.73692 9.6021C6.23882 10.9489 6.58912 12.4178 6.59192 13.8782C6.66412 12.653 6.80952 11.4181 7.03122 10.1781Z" fill="#76767F"></path><path d="M34.3684 7.1554V13.0052C34.3684 15.5781 32.0382 16.816 28.5065 16.816C25.2054 16.816 22.8388 15.5903 22.8388 12.7018V7.1554H26.1278V12.7018C26.1278 13.7334 27.0137 14.3766 28.64 14.3766C30.1935 14.3766 31.1159 13.7091 31.1159 12.7139V7.1554H34.3684Z" fill="#76767F"></path><path d="M45.3223 14.146V16.6825H36.2321V7.1554H39.5211V14.146H45.3223Z" fill="#76767F"></path><path d="M55.0968 9.5463V7.1554H43.7249V9.5463H47.7421V16.6825H51.0675V9.5463H55.0968Z" fill="#76767F"></path><path fill-rule="evenodd" clip-rule="evenodd" d="M66.763 8.1264C67.2 8.5754 67.407 9.1944 67.407 10.056C67.407 10.7964 67.225 11.4275 66.921 11.8522C66.581 12.3134 66.059 12.7018 65.416 12.7989L68.293 16.6825H64.676L62.309 13.3207H59.3602V16.6825H56.1197V7.1554H63.705C65.21 7.1554 66.193 7.5195 66.763 8.1264ZM64.142 10.8571C64.227 10.7114 64.251 10.5172 64.251 10.3595C64.251 10.1774 64.227 9.9832 64.142 9.8619C63.972 9.5463 63.632 9.4614 63.122 9.4614H59.3723V11.1969H63.183C63.705 11.1969 64.021 11.0998 64.142 10.8571Z" fill="#76767F"></path><path fill-rule="evenodd" clip-rule="evenodd" d="M72.671 14.9228H77.817L78.654 16.6825H82.162L77.356 7.1554H73.436L68.351 16.6825H71.785L72.671 14.9228ZM76.785 12.7867H73.739L74.941 10.493L75.305 9.61909L75.645 10.4808L76.785 12.7867Z" fill="#76767F"></path><path fill-rule="evenodd" clip-rule="evenodd" d="M66.416 18.4768C64.38 18.4768 63.309 19.4418 63.309 20.8598C63.309 22.4603 64.433 23.2722 66.416 23.2722C68.599 23.2722 69.517 22.3308 69.517 20.8598C69.517 19.3653 68.481 18.4768 66.416 18.4768ZM66.416 22.0896C65.257 22.0896 64.921 21.613 64.921 20.8775C64.921 20.1538 65.286 19.6772 66.41 19.6772C67.64 19.6772 67.916 20.2126 67.916 20.8775C67.916 21.5836 67.581 22.0896 66.416 22.0896Z" fill="#76767F"></path><path d="M60.2913 23.2016V20.4656H57.2199V21.46H58.8615C58.8498 21.5365 58.7909 21.6836 58.7144 21.7718C58.5438 21.9719 58.0907 22.1484 57.5023 22.1484C56.8904 22.1484 56.4962 21.9895 56.2844 21.7424C56.1432 21.56 56.0608 21.3011 56.0608 20.9128C56.0608 20.5068 56.1432 20.2303 56.302 20.0479C56.5315 19.789 56.9198 19.6772 57.4906 19.6772C58.0025 19.6772 58.3555 19.7948 58.5203 19.9419C58.6262 20.0302 58.7085 20.1538 58.7262 20.2361H60.2501C60.2443 20.089 60.1972 19.8537 60.1148 19.6831C59.75 18.9417 58.9027 18.5004 57.4612 18.5004C56.2079 18.5004 55.3665 18.8828 54.9017 19.4595C54.5957 19.8537 54.4545 20.3479 54.4545 20.901C54.4545 21.513 54.6192 22.0366 54.8899 22.3838C55.3488 22.9781 56.1667 23.2722 57.1493 23.2722C58.0143 23.2722 58.6085 23.0663 58.9851 22.7545L59.0263 23.2016H60.2913Z" fill="#76767F"></path><path d="M44.2632 20.4068C45.4576 20.5362 45.9695 20.9599 45.9695 21.766C45.9695 22.7427 45.0163 23.2722 43.1393 23.2722C41.3918 23.2722 40.6387 22.778 40.3503 22.1308C40.2856 21.9778 40.2562 21.7895 40.2385 21.6718H41.9331C41.9449 21.7424 41.9861 21.8483 42.0449 21.9189C42.1861 22.0896 42.5803 22.1896 43.2511 22.1896C44.1161 22.1896 44.322 22.066 44.322 21.8366C44.322 21.5894 44.1102 21.5365 43.3276 21.4541C43.0158 21.4247 42.5215 21.3776 42.3156 21.36C40.8211 21.2246 40.268 20.7598 40.268 19.9655C40.268 19.1417 41.2447 18.5122 43.0275 18.5122C44.6103 18.5122 45.3458 18.9829 45.6518 19.5713C45.7459 19.7478 45.8047 19.9478 45.8224 20.089H44.1278C44.1219 20.0243 44.0984 19.9596 44.0337 19.8772C43.9042 19.7066 43.5747 19.5948 42.9863 19.5948C42.1567 19.5948 41.939 19.6948 41.939 19.9066C41.939 20.142 42.2156 20.195 43.1393 20.295C43.4982 20.3244 44.069 20.3832 44.2632 20.4068Z" fill="#76767F"></path><path fill-rule="evenodd" clip-rule="evenodd" d="M27.3707 18.977C27.6825 19.2241 27.859 19.6419 27.859 20.2479C27.859 20.7422 27.7355 21.1128 27.5001 21.3717C27.1824 21.7365 26.6587 21.9013 25.9762 21.9072C25.7643 21.9131 23.9521 21.9072 23.9521 21.9072V23.2016H22.3693V18.5828H25.9526C26.5881 18.5828 27.0706 18.7122 27.3707 18.977ZM26.1998 20.6068C26.2468 20.5245 26.2704 20.4185 26.2704 20.2714C26.2704 20.1185 26.2409 19.989 26.188 19.9184C26.088 19.7713 25.8997 19.7007 25.5937 19.7007H23.9403V20.8304H25.5819C25.9114 20.8304 26.1056 20.7539 26.1998 20.6068Z" fill="#76767F"></path><path fill-rule="evenodd" clip-rule="evenodd" d="M33.649 19.0535C33.8609 19.2712 33.9609 19.5713 33.9609 19.989C33.9609 20.3479 33.8726 20.6539 33.7255 20.8598C33.5608 21.0834 33.3078 21.2717 32.9959 21.3188L34.3904 23.2016H32.637L31.4896 21.5718H30.0598V23.2016H28.4888V18.5828H32.1663C32.8959 18.5828 33.3725 18.7593 33.649 19.0535ZM32.3781 20.3774C32.4193 20.3068 32.431 20.2126 32.431 20.1361C32.431 20.0479 32.4193 19.9537 32.3781 19.8949C32.2957 19.7419 32.131 19.7007 31.8839 19.7007H30.0657V20.5421H31.9133C32.1663 20.5421 32.3193 20.495 32.3781 20.3774Z" fill="#76767F"></path><path d="M39.7616 23.2016V22.0543H36.449V21.4541H39.6263V20.3303H36.449V19.736H39.7204V18.5828H34.8956V23.2016H39.7616Z" fill="#76767F"></path><path d="M51.6952 19.7419V18.5828H46.182V19.7419H48.1295V23.2016H49.7417V19.7419H51.6952Z" fill="#76767F"></path><path d="M53.8151 18.5828V23.2016H52.197V18.5828H53.8151Z" fill="#76767F"></path><path d="M62.67 18.5828V23.2016H61.0516V18.5828H62.67Z" fill="#76767F"></path><path d="M75.76 18.5828V21.4188C75.76 22.6662 74.63 23.2664 72.918 23.2664C71.318 23.2664 70.17 22.6721 70.17 21.2717V18.5828H71.765V21.2717C71.765 21.7718 72.194 22.0837 72.983 22.0837C73.736 22.0837 74.183 21.7601 74.183 21.2776V18.5828H75.76Z" fill="#76767F"></path><path d="M82.112 21.766C82.112 20.9599 81.6 20.5362 80.406 20.4068C80.211 20.3832 79.641 20.3244 79.282 20.295C78.358 20.195 78.081 20.142 78.081 19.9066C78.081 19.6948 78.299 19.5948 79.129 19.5948C79.717 19.5948 80.047 19.7066 80.176 19.8772C80.241 19.9596 80.264 20.0243 80.27 20.089H81.965C81.947 19.9478 81.888 19.7478 81.794 19.5713C81.488 18.9829 80.753 18.5122 79.17 18.5122C77.387 18.5122 76.41 19.1417 76.41 19.9655C76.41 20.7598 76.964 21.2246 78.458 21.36L78.554 21.3685L78.714 21.3831L79.47 21.4541C80.253 21.5365 80.464 21.5894 80.464 21.8366C80.464 22.066 80.259 22.1896 79.394 22.1896C78.723 22.1896 78.329 22.0896 78.187 21.9189C78.129 21.8483 78.087 21.7424 78.076 21.6718H76.381C76.399 21.7895 76.428 21.9778 76.493 22.1308C76.781 22.778 77.534 23.2722 79.282 23.2722C81.159 23.2722 82.112 22.7427 82.112 21.766Z" fill="#76767F"></path><path fill-rule="evenodd" clip-rule="evenodd" d="M40.9666 24.9701C39.6435 24.9701 38.9475 25.5973 38.9475 26.5189C38.9475 27.559 39.6779 28.0867 40.9666 28.0867C42.3854 28.0867 42.9819 27.4749 42.9819 26.5189C42.9819 25.5476 42.3089 24.9701 40.9666 24.9701ZM40.9666 27.3181C40.2133 27.3181 39.9953 27.0083 39.9953 26.5303C39.9953 26.06 40.2324 25.7502 40.9628 25.7502C41.762 25.7502 41.9418 26.0982 41.9418 26.5303C41.9418 26.9892 41.7238 27.3181 40.9666 27.3181Z" fill="#76767F"></path><path d="M33.6085 27.1079C33.6085 26.584 33.2758 26.3086 32.4995 26.2245C32.3733 26.2092 32.0024 26.171 31.7691 26.1519C31.1687 26.0868 30.989 26.0524 30.989 25.8995C30.989 25.7618 31.1305 25.6968 31.6697 25.6968C32.0521 25.6968 32.2662 25.7694 32.3504 25.8803C32.3924 25.9339 32.4077 25.9759 32.4116 26.018H33.5129C33.5014 25.9262 33.4632 25.7962 33.402 25.6815C33.2031 25.2991 32.7251 24.9932 31.6964 24.9932C30.5378 24.9932 29.903 25.4023 29.903 25.9377C29.903 26.454 30.2624 26.7561 31.2337 26.844C31.3676 26.8555 31.6888 26.8861 31.8915 26.9052C32.4001 26.9587 32.5377 26.9932 32.5377 27.1538C32.5377 27.3029 32.4039 27.3832 31.8418 27.3832C31.4058 27.3832 31.1496 27.3182 31.0578 27.2073C31.0196 27.1614 30.9928 27.0926 30.9852 27.0467H29.8838C29.8953 27.1232 29.9144 27.2455 29.9565 27.345C30.1439 27.7656 30.6334 28.0868 31.7691 28.0868C32.989 28.0868 33.6085 27.7427 33.6085 27.1079Z" fill="#76767F"></path><path fill-rule="evenodd" clip-rule="evenodd" d="M25.9731 27.1919C25.9731 27.3984 25.9157 27.6011 25.801 27.7349C25.6251 27.9491 25.2962 28.0408 24.8718 28.0408H22.2065V25.0389H24.7991C25.2121 25.0389 25.476 25.1384 25.6213 25.2875C25.7513 25.4175 25.8088 25.5896 25.8088 25.7846C25.8088 25.9797 25.7628 26.1403 25.6634 26.2588C25.583 26.3583 25.4454 26.4347 25.3001 26.4539C25.5142 26.4806 25.7169 26.5877 25.8316 26.7368C25.9272 26.8477 25.9731 27.016 25.9731 27.1919ZM24.6844 26.1403C24.7226 26.0982 24.7457 26.037 24.7457 25.9644C24.7457 25.8917 24.7227 25.8305 24.673 25.7885C24.6195 25.7387 24.5199 25.7196 24.3746 25.7196H23.2084V26.2091H24.4015C24.5315 26.2091 24.6309 26.19 24.6844 26.1403ZM24.5123 27.3602C24.692 27.3602 24.7991 27.3372 24.8603 27.2799C24.8985 27.2416 24.9138 27.1843 24.9138 27.1116C24.9138 27.0351 24.8948 26.9778 24.8489 26.9319C24.7916 26.8822 24.692 26.8592 24.5238 26.8592H23.2084V27.3602H24.5123Z" fill="#76767F"></path><path d="M29.5739 27.2952V28.0408H26.4114V25.0389H29.5471V25.7885H27.4209V26.1747H29.4859V26.9051H27.4209V27.2952H29.5739Z" fill="#76767F"></path><path d="M37.3297 25.0389V25.7923H36.0601V28.0408H35.0124V25.7923H33.7466V25.0389H37.3297Z" fill="#76767F"></path><path d="M46.4812 25.0389V25.7999H44.443V26.2244H46.3856V26.9778H44.443V28.0408H43.4143V25.0389H46.4812Z" fill="#76767F"></path><path d="M51.6625 25.7923V25.0389H48.0794V25.7923H49.3452V28.0408H50.393V25.7923H51.6625Z" fill="#76767F"></path><path d="M55.5719 25.0389V28.0408H54.547V26.951H53.0097V28.0408H51.9849V25.0389H53.0097V26.1326H54.547V25.0389H55.5719Z" fill="#76767F"></path><path d="M59.3412 28.0408V27.2952H57.1882V26.9051H59.2532V26.1747H57.1882V25.7885H59.3144V25.0389H56.1787V28.0408H59.3412Z" fill="#76767F"></path><path d="M65.681 25.0389H66.671L65.574 28.0408H64.45C64.45 28.0408 63.849 26.2474 63.845 26.1976C63.842 26.2474 63.237 28.0408 63.237 28.0408H62.117L60.9927 25.0389H62.105C62.105 25.0389 62.756 26.928 62.756 26.9739C62.756 26.928 63.356 25.0389 63.356 25.0389H64.431C64.431 25.0389 65.035 26.928 65.035 26.9739C65.035 26.928 65.681 25.0389 65.681 25.0389Z" fill="#76767F"></path><path fill-rule="evenodd" clip-rule="evenodd" d="M68.635 24.9701C67.312 24.9701 66.616 25.5973 66.616 26.5189C66.616 27.559 67.346 28.0867 68.635 28.0867C70.054 28.0867 70.65 27.4749 70.65 26.5189C70.65 25.5476 69.977 24.9701 68.635 24.9701ZM68.635 27.3181C67.882 27.3181 67.664 27.0083 67.664 26.5303C67.664 26.06 67.901 25.7502 68.631 25.7502C69.431 25.7502 69.61 26.0982 69.61 26.5303C69.61 26.9892 69.392 27.3181 68.635 27.3181Z" fill="#76767F"></path><path fill-rule="evenodd" clip-rule="evenodd" d="M74.437 25.3449C74.574 25.4864 74.639 25.6814 74.639 25.9529C74.639 26.1862 74.582 26.385 74.486 26.5189C74.379 26.6642 74.215 26.7866 74.012 26.8171L74.918 28.0408H73.779L73.033 26.9816H72.104V28.0408H71.083V25.0389H73.473C73.947 25.0389 74.257 25.1537 74.437 25.3449ZM73.611 26.2053C73.637 26.1594 73.645 26.0982 73.645 26.0485C73.645 25.9911 73.637 25.93 73.611 25.8917C73.557 25.7923 73.45 25.7655 73.289 25.7655H72.108V26.3124H73.308C73.473 26.3124 73.572 26.2818 73.611 26.2053Z" fill="#76767F"></path><path d="M78.111 28.0408V27.2416H76.283V25.0389H75.247V28.0408H78.111Z" fill="#76767F"></path><path fill-rule="evenodd" clip-rule="evenodd" d="M82.166 26.4844C82.166 26.951 82.12 27.2034 81.983 27.4405C81.776 27.819 81.367 28.0408 80.644 28.0408H78.518V25.0389H80.621C81.34 25.0389 81.765 25.2416 81.975 25.5896C82.124 25.8229 82.166 26.0714 82.166 26.4844ZM80.449 27.3028C80.774 27.3028 80.958 27.2263 81.069 27.0581C81.138 26.9548 81.157 26.7139 81.157 26.5036C81.153 26.3124 81.13 26.1097 81.069 26.0179C80.95 25.8382 80.771 25.7732 80.457 25.7732H79.543V27.3028H80.449Z" fill="#76767F"></path><path d="M41.1449 42.6405H39.5603C39.5603 42.6405 38.5263 45.663 38.5263 45.7364C38.5263 45.663 37.5596 42.6405 37.5596 42.6405H35.8403C35.8403 42.6405 34.8797 45.663 34.8797 45.7364C34.8797 45.663 33.8396 42.6405 33.8396 42.6405H32.0591L33.8579 47.4434H35.6506C35.6506 47.4434 36.6173 44.5739 36.6234 44.4944C36.6296 44.5739 37.5901 47.4434 37.5901 47.4434H39.3889L41.1449 42.6405Z" fill="#76767F"></path><path d="M43.3133 47.4434V42.6405H41.6307V47.4434H43.3133Z" fill="#76767F"></path><path d="M49.8579 42.6405V47.4434H48.2181L45.8381 44.7697V47.4434H44.2596V42.6405H45.9849L48.2915 45.2531V42.6405H49.8579Z" fill="#76767F"></path><path d="M56.4124 47.4434V42.6405H54.8461V45.2531L52.5395 42.6405H50.8141V47.4434H52.3926V44.7697L54.7727 47.4434H56.4124Z" fill="#76767F"></path><path d="M62.429 46.2503V47.4434H57.3686V42.6405H62.386V43.8397H58.9839V44.4577H62.288V45.6263H58.9839V46.2503H62.429Z" fill="#76767F"></path><path fill-rule="evenodd" clip-rule="evenodd" d="M68.896 44.1028C68.896 43.6684 68.792 43.3564 68.572 43.13C68.284 42.8241 67.789 42.6405 67.03 42.6405H63.206V47.4434H64.84V45.7486H66.327L67.52 47.4434H69.343L67.893 45.4856C68.217 45.4366 68.48 45.2408 68.652 45.0083C68.804 44.7942 68.896 44.476 68.896 44.1028ZM67.305 44.2558C67.305 44.3353 67.293 44.4332 67.25 44.5066C67.189 44.629 67.03 44.6779 66.767 44.6779H64.846V43.803H66.736C66.993 43.803 67.165 43.8458 67.25 44.0049C67.293 44.0661 67.305 44.164 67.305 44.2558Z" fill="#76767F"></path><path d="M36.2595 34.167L35.596 32.1248L34.9324 34.167H32.7851L34.5223 35.4291L33.8588 37.4713L35.596 36.2092L37.3331 37.4713L36.6696 35.4291L38.4068 34.167H36.2595Z" fill="#76767F"></path><path d="M43.2565 32.1234L43.9336 34.1656H46.1247L44.3521 35.4278L45.0292 37.4699L43.2565 36.2078L41.4839 37.4699L42.161 35.4278L40.3883 34.1656H42.5794L43.2565 32.1234Z" fill="#76767F"></path><path d="M51.533 34.1656L50.856 32.1234L50.1789 34.1656H47.9877L49.7604 35.4278L49.0833 37.4699L50.856 36.2078L52.6286 37.4699L51.9515 35.4278L53.7242 34.1656H51.533Z" fill="#76767F"></path><path d="M58.4558 32.1234L59.1329 34.1656H61.324L59.5514 35.4278L60.2285 37.4699L58.4558 36.2078L56.6832 37.4699L57.3603 35.4278L55.5876 34.1656H57.7788L58.4558 32.1234Z" fill="#76767F"></path><path d="M66.78 34.1656L66.116 32.1234L65.452 34.1656H63.305L65.042 35.4278L64.379 37.4699L66.116 36.2078L67.853 37.4699L67.19 35.4278L68.927 34.1656H66.78Z" fill="#76767F"></path><path d="M94.638 10.2224C95.273 8.60787 94.997 6.75117 94.412 5.18977C93.796 3.54687 92.724 1.90817 91.122 1.04407C91.042 2.77557 91.571 4.48607 92.149 6.02857C92.669 7.41587 93.306 8.89387 94.359 10.0412C94.521 10.9104 94.645 11.7772 94.732 12.64C94.383 11.7287 93.818 10.8981 93.112 10.2301C92.203 9.36957 90.85 8.70577 89.581 9.09837C89.953 10.5015 90.8 11.8467 91.804 12.7903C92.594 13.533 93.637 14.4846 94.865 14.5221C94.916 15.7922 94.887 17.0507 94.782 18.2921C94.609 17.3837 94.238 16.5283 93.701 15.8913C92.964 15.0159 91.871 13.9466 90.476 14.1255C90.552 15.5457 91.119 17.0008 91.908 18.0942C92.534 18.9631 93.362 20.0706 94.537 20.3567C94.349 21.5762 94.087 22.7755 93.754 23.9491C93.751 23.0505 93.553 22.1684 93.159 21.4609C92.604 20.4633 91.739 19.219 90.342 19.1217C90.137 20.515 90.415 22.0381 90.975 23.2495C91.422 24.2178 92.019 25.4526 93.106 25.9635C92.649 27.2265 92.109 28.4543 91.489 29.6392C91.707 28.6178 91.698 27.5415 91.441 26.573C91.086 25.2382 90.206 23.836 88.792 23.4292C88.292 24.903 88.361 26.5474 88.652 28.0452C88.891 29.2785 89.36 30.7269 90.412 31.528C89.724 32.6387 88.963 33.7046 88.132 34.7188C88.579 33.7242 88.8 32.6363 88.681 31.6404C88.508 30.19 88.101 28.6387 86.62 27.8657C85.779 29.3157 85.584 30.9424 85.513 32.5491C85.455 33.8481 85.642 35.4503 86.545 36.5071C85.552 37.5385 84.482 38.5038 83.339 39.394C84.077 38.4469 84.594 37.3356 84.703 36.2366C84.858 34.6837 84.783 32.9743 83.404 31.8346C82.226 33.0656 81.522 34.8785 81.178 36.4531C80.873 37.8452 80.555 39.4931 81.28 40.8632C79.825 41.8134 78.271 42.6505 76.628 43.3595C77.784 42.5357 78.73 41.4054 79.181 40.2384C79.772 38.709 80.137 36.8864 78.987 35.3546C77.445 36.3421 76.312 38.0268 75.419 39.5635C74.653 40.8821 73.86 42.702 74.254 44.2723C73.344 44.5809 72.411 44.8519 71.456 45.0831L71.513 45.3176C72.471 45.0855 73.408 44.8136 74.321 44.5041C74.961 46.3947 77.057 47.0195 78.752 47.2952C81.167 47.6881 84.043 46.9269 86.105 45.3932C85.016 43.8553 82.796 43.6993 81.122 43.5816L81.1 43.5801C79.266 43.4512 77.282 43.6234 75.438 44.1027C77.568 43.2916 79.562 42.2716 81.401 41.0726L81.426 41.1126C82.433 42.7488 84.457 42.8128 86.045 42.7094C88.2 42.5692 90.687 41.2593 92.126 39.4486C90.772 38.2608 88.773 38.5931 87.223 38.8506L87.215 38.852C85.486 39.1394 83.597 39.7663 82.011 40.7317C82.162 40.6128 82.309 40.4871 82.453 40.3552C83.995 39.2557 85.417 38.0258 86.708 36.6848C86.726 36.7027 86.744 36.7203 86.762 36.7378C88.018 37.9909 89.841 37.6603 91.265 37.2502C93.175 36.7002 95.155 35.0409 96.104 33.136C94.633 32.312 92.875 32.9909 91.508 33.5281C90.005 34.1181 88.416 35.0622 87.194 36.2659C87.32 36.1069 87.441 35.9407 87.555 35.7687C88.69 34.487 89.712 33.1145 90.61 31.6665L90.649 31.6906L90.659 31.6969C92.078 32.6101 93.686 31.947 94.96 31.2948C96.689 30.4099 98.079 28.4651 98.679 26.5525C97.145 26.0612 95.63 27.0255 94.452 27.7892C93.162 28.6249 91.856 29.8169 90.96 31.184C91.026 31.0491 91.088 30.9111 91.145 30.7706C92.006 29.2683 92.737 27.6913 93.329 26.0554L93.36 26.0658L93.365 26.0678C94.656 26.5565 96.093 25.7938 97.03 24.9574C98.332 23.7942 99.251 22.0059 99.466 20.2588C98.12 20.0844 96.851 21.126 95.984 22.0143C94.986 23.0375 94.089 24.2468 93.538 25.5902C93.579 25.4436 93.614 25.2947 93.643 25.1442C94.144 23.6074 94.524 22.0225 94.774 20.4023L94.812 20.4073C96.172 20.6275 97.43 19.5926 98.182 18.5881C99.24 17.1746 99.785 15.2183 99.648 13.4451C98.289 13.5403 97.253 14.8339 96.582 15.8805C95.804 17.0926 95.159 18.4645 94.877 19.8998C94.886 19.785 94.891 19.6696 94.893 19.5538C95.1 17.9045 95.174 16.2214 95.106 14.5176C96.495 14.4689 97.524 13.1793 98.054 12.0357C98.811 10.4 98.933 8.33217 98.428 6.58967C97.105 6.96097 96.367 8.47827 95.932 9.64637C95.43 10.9932 95.08 12.4623 95.077 13.9227C95.005 12.6975 94.859 11.4625 94.638 10.2224Z" fill="#76767F"></path></svg>